<svg version="1.1" xmlns="http://www.w3.org/2000/svg" xmlns:xlink="http://www.w3.org/1999/xlink" viewBox="-50 -40 192.75 157.95"
          preserveAspectRatio="xMidYMid slice" width="92.75" height="77.95">
          <defs>
            <path id="flower" d="M 0 0 L 10.86 2.31 L 12.72 7.95 L 9.23 11.82 L 3.43 10.56 L -0.52 14.99 L -5.62 13.91 L -7.43 8.25 L -13.24 7.04 L -14.85 2.09 L -10.86 -2.31 L -12.72 -7.95 L -9.23 -11.82 L -3.43 -10.56 L 0.52 -14.99 L 5.62 -13.91 L 7.43 -8.25 L 13.24 -7.04 L 14.85 -2.09 L 10.86 2.31 Z"></path>
          </defs>
          <rect width="100%" height="100%" fill="black"></rect>
          <use xlink:href="#flower" fill="rgb(110,1,162)" transform="translate(0, 0) "></use>
          <use xlink:href="#flower" fill="rgb(74,-3,172)" transform="translate(30.7, 0) "></use>
          <use xlink:href="#flower" fill="rgb(52,7,195)" transform="translate(61.4, 0) "></use>
          <use xlink:href="#flower" fill="rgb(149,7,155)" transform="translate(15.5, 30.98) "></use>
          <use xlink:href="#flower" fill="rgb(120,11,172)" transform="translate(46.2, 30.98) "></use>
          <use xlink:href="#flower" fill="rgb(77,0,175)" transform="translate(76.9, 30.98) "></use>
          <use xlink:href="#flower" fill="rgb(206,32,167)" transform="translate(0, 61.96) "></use>
          <use xlink:href="#flower" fill="rgb(173,32,180)" transform="translate(30.7, 61.96) "></use>
          <use xlink:href="#flower" fill="rgb(131,23,184)" transform="translate(61.4, 61.96) "></use>
        </svg>