<svg version="1.1" xmlns="http://www.w3.org/2000/svg" xmlns:xlink="http://www.w3.org/1999/xlink" viewBox="-50 -40 177.5 157.5"
          preserveAspectRatio="xMidYMid slice" width="77.5" height="77.5">
          <defs>
            <path id="heart" d="M140,20C 73,20 20,74 20,140 20,275 156,310 248,443 336,311 477,270 477,140 477,74 423,20 357,20 309,20 267,48 248,89 229,48 188,20 140,20Z"
              transform="scale(0.025)"></path>
          </defs>
          <rect width="100%" height="100%" fill="black"></rect>
          <use xlink:href="#heart" fill="rgb(117,8,169)" transform="translate(0, 0) "></use>
          <use xlink:href="#heart" fill="rgb(100,23,198)" transform="translate(31, 0) "></use>
          <use xlink:href="#heart" fill="rgb(57,12,200)" transform="translate(62, 0) "></use>
          <use xlink:href="#heart" fill="rgb(160,18,166)" transform="translate(0, 31) "></use>
          <use xlink:href="#heart" fill="rgb(120,11,172)" transform="translate(31, 31) "></use>
          <use xlink:href="#heart" fill="rgb(82,5,180)" transform="translate(62, 31) "></use>
          <use xlink:href="#heart" fill="rgb(185,11,146)" transform="translate(0, 62) "></use>
          <use xlink:href="#heart" fill="rgb(159,18,166)" transform="translate(31, 62) "></use>
          <use xlink:href="#h" fill="rgb(133,25,186)" transform="translate(62, 62) "></use>
        </svg>