<svg version="1.1" xmlns="http://www.w3.org/2000/svg" xmlns:xlink="http://www.w3.org/1999/xlink" viewBox="-50 -40 394.5 374.5" preserveAspectRatio="xMidYMid slice" width="294.5" height="294.5">
	<defs>
		<path id="paint" d="M309.7,88.6c-2.5-0.3-4.2-0.7-5.9-1.9c-1.9-1.3-5.6-2.5-8.7-1.9c-2.8,0.6-4.2-0.3-6.1-0.6
        c-2.6-0.4-3.1-1.8-3.5-3c-0.2-0.5,0-0.9,0-1.5c-2.1,0-3.8,0-5.6,0c-0.9,0-2.2,0.1-2.6,0.4c-3,2-7.2,1.3-11.1,1.5
        c-0.8,0-1.8-0.4-3.2-0.8c2.5-0.8,4.3-1.4,6.6-2.2c-0.8-0.1-1-0.1-1.1-0.1c-0.3,0-0.6,0.1-0.9,0.1c-5.3,0.6-10.4,2.4-15.9,0.2
        c-0.4-0.2-1.3-0.1-1.9,0c-2.4,0.6-4.5,0-7.3-0.4c2-0.9,3.4-1.5,5.5-2.4c-3.2-0.7-5.7-1.3-8.2-1.9c1.3-1.9,1.2-2.1-1.3-2.3
        c-1.8-0.2-3.7,0-4.9,0c-2.2-0.6-4.6-1.8-5.6-1.5c-2.8,0.7-4.7,0.3-7.4,0c-4.5-0.5-9.2-0.4-13.6,0.7c-3.4,0.9-6.9,1.1-10.8,0.2
        c3.3-1.2,6.5-2.3,10.6-2.2c-4.1-0.8-8-0.4-11.8,0.4c-1.5,0.3-3.1,0.4-4.7,0.6c-8.8,0.9-17.3,2.5-25.5,4.3c-9.3,2-18.5,4.1-27.9,6.1
        c-2.1,0.4-4.6,0.5-7,0.5c-2,0-4.1-0.2-6.2-0.4c-4.7-0.3-9.5-0.9-14.2-1c-5.5,0-10.5-0.7-15.2-2.1c-4.5-1.3-8.7-2.8-12.9-4.3
        c-1.3-0.5-2.3-1.1-3.3-1.8c-1.8-1.1-3.6-2.3-5.4-3.5c-2.5-1.7-4.8-3.5-7.2-5.3c-1.9-1.4-3.7-2.7-5.6-4c-1.1-0.7-2.4-1.4-4.6-0.7
        c0.2,0.5,0.3,1,0.5,1.5c0.4,1-0.1,1.8-1.8,2.4c-4.1,1.4-4.8,3.7-6,5.9c-1.1,2.2-1.8,4.7-4,6.6c-1.5,1.3-3.2,2.5-4.1,4.1
        c-1.8,3.3-3.8,6.5-5.8,9.7c-1.5,0.3-2.9,0.5-4.8,0.9c1.2,0.6,2.1,1,2.7,1.5c0.7,0.6,1.8,1.3,1.7,1.9c-0.2,1.6,0.9,2.9,2.9,4.1
        c1.1,0.7,1.8,1.6,2.7,2.3c2.9,2.3,5,4.7,9,6.6c2.2,1.1,4.9,2.1,4.9,4.1c0,0.4,1.1,0.9,1.9,1c3.5,0.8,6.4,1.7,7.6,3.8
        c0.2,0.4,1,0.6,1.6,0.9c2.8,1.6,5.6,3.2,8.3,4.8c0.6,0.3,0.8,0.8,1.4,1.4c-1.2,0.4-2.2,0.8-3.1,1.1c0.3,2.4,2.5,4.1,6.2,5.4
        c4.3,1.4,8.6,2.7,13.7,3.2c8,0.9,15.7,2.5,23.7,3.2c8.5,0.8,17.2,1.1,25.8,1.4c7.3,0.2,14.6,0.2,21.9,0.3c2,0,3.7-0.2,5.2-1
        c2.6-1.5,6-2.1,9.9-2.1c1,0,2-0.2,3.6-0.3c-1.2-0.8-1.7-1.7-3.6-0.9c-1.1,0.4-1.9,0.4-2.9-0.1c-1.5-0.7-2.6-0.4-4.2,0.2
        c-3.3,1.3-7,2-10.9,0.5c1.3-2,1.8-2.3,4.6-1.4c1.9,0.6,2.8,0.2,3.3-0.5c0.7-1,2.2-1.2,3.8-1.3c4-0.2,7.9-0.2,12-0.3
        c-0.4,0.6-0.8,1.2-1.6,2.3c1.5-0.3,2.5-0.4,2.7-0.6c1.3-2,4.7-2,7.8-2.2c1.4-0.1,3-0.2,4.1-0.5c3.8-1.2,7.9-1.7,12.3-1.9
        c3.7-0.1,7.3-0.5,10.3-1.8c3.8-1.7,7.5-3.4,11.7-5.4c-1.3,0.2-2.2,0.2-3,0.4c-3.1,0.7-6.2,1.4-9.2,2.2c-2.3,0.6-4.1,0.6-5.9-0.3
        c0.1-1.3,1.7-1.6,3.4-1.9c2.7-0.6,5.3-1.3,4.5-3.1c2.9-0.7,5.5-1.4,8.3-2.1c-0.9-0.6-1.4-1-1.7-1.2c1.7-0.4,4.5-0.8,4.5-1.2
        c-0.1-1.7,2.5-2,5.2-2.8c-2.5-0.1-4,1.3-5.8,0c0.7-0.3,1.3-0.6,2-0.8c0.8-0.3,2.2-0.4,2.4-0.7c0.9-1.8,3.7-2.1,6.4-2.6
        c3.7-0.8,6.5-2.1,7.7-4.5c-2.1,0.4-3.7,0.8-5.4,1c-0.8,0.1-2.1,0-2.5-0.3c-1.7-1.2-3.4-0.9-5.4-0.3c-4.8,1.4-9.5,2.8-15.4,2.3
        c-0.9-1.4-0.9-1.4,0.3-1.8c1.2-0.4,2.5-0.9,3.8-1c7.3-0.9,14.5-1.9,22.1-1.2c0.6,0.1,1.4,0.1,1.9,0c2.4-0.9,5-0.2,7.5-0.2
        c2.2,0,4.3,0.2,6.7,0.3c-0.2-0.6-0.4-1-0.5-1.4c5-0.1,7.8,2,11.8,2.6c3-0.7,5.8-1.5,8.9-1.9c3.6-0.4,5.4-1.9,7.9-3
        c1.2-0.5,1.8-1.5,2.9-2.4c5.6,0.6,12,2.1,17.6-0.9C310.8,90.5,310.3,89.6,309.7,88.6z M145.8,90.1c-0.3,0.2-0.7,0.2-1.1,0.4
        c-0.1-0.2-0.3-0.5-0.2-0.5c0.3-0.1,0.8-0.2,1.2-0.3C145.7,89.9,145.9,90.1,145.8,90.1z M214.7,106.5c-0.1-0.1-0.2-0.2-0.3-0.3
        c0.7-0.2,1.4-0.4,2.2-0.7c0.1,0.2,0.3,0.3,0.4,0.5C216.3,106.2,215.5,106.4,214.7,106.5z M237.1,102c0.5-0.2,1.2-0.4,1.8-0.6
        c0.1,0,0.8,0.4,0.7,0.5c-0.3,0.3-0.9,0.5-1.6,1C237.6,102.5,237,102.1,237.1,102z M297.2,90.9c3.6-1.7,6.2-1.5,10.7,0.6
        C304,92.1,300.8,91.4,297.2,90.9z M244,72c7.2,0.2,13.6,0.3,19.9,0.5c0,0.2,0,0.5,0,0.7c-2.4,0-4.9,0-7.3,0c-2.2,0-4.7-0.1-6.6,0.4
        C247.3,74.2,245.9,73.7,244,72z M296.8,72.3c-0.5,0.3-0.8,0.8-1.5,1c-3.1,0.7-6.4,1.3-9.5,2.1c-1,0.3-1.6,0.9-2.8,1.7
        c-0.7-0.1-1.7-0.3-2.8-0.5C284.6,73.9,291.1,73.6,296.8,72.3z M272.2,74.9c-0.7-0.4-1.6-1-2.8-1.7c4,0.2,7.8,0.5,11.7,0.7
        c0,0.2,0,0.4,0,0.6C278.2,74.6,275.3,74.7,272.2,74.9z M222.7,66.9c4-1,7.5-0.7,10.9-0.6c0.1,0,0.1,0.2,0.2,0.4
        C230.3,67,226.9,67.6,222.7,66.9z M256.5,77.3c2.7-0.3,4.9-0.6,7.1-0.8C262.4,78,262.4,78,256.5,77.3z M255.7,104.1
        c-3.2,2.1-3.8,2.3-6.1,1.7C250.7,104.3,253.1,104.2,255.7,104.1z M303.2,84.5c1.5-0.9,3.2-1.6,6.2-1.6
        C307.7,84.4,305.3,84.3,303.2,84.5z M255.9,67.3c-1.9-0.1-3.7-0.2-5.5-0.3c0-0.2,0.1-0.3,0.1-0.5c1.6,0.1,3.3,0.3,4.9,0.4
        c0.2,0,0.4,0,0.4,0.1C256,67,255.9,67.2,255.9,67.3z M263.2,102c1-0.4,2.1-0.7,3.1-1c-0.6,0.9-1.1,1.9-3.4,1.5
        C263.1,102.3,263,102.1,263.2,102z M285.7,98c0.9,0.1,1.9,0.3,2.8,0.4c-0.1,0.2-0.2,0.4-0.2,0.6c-0.9-0.1-1.9-0.2-2.8-0.2
        C285.5,98.5,285.6,98.3,285.7,98z M264,68.1c-0.2-0.1-0.5-0.1-0.7-0.2c0.3-0.1,0.5-0.2,0.9-0.3c0.1,0,0.4,0.2,0.5,0.3
        C264.4,68,264.2,68.1,264,68.1z M242.2,108.1c-1.1,0.3-1.7,0.5-2.3,0.7c-0.1-0.1-0.3-0.2-0.4-0.3c0.3-0.2,0.6-0.4,1-0.5
        C240.7,108,241.1,108.1,242.2,108.1z M281.3,72c-0.2-0.1-0.5-0.1-0.7-0.2c0.1-0.1,0.3-0.3,0.5-0.3c0.2,0,0.5,0.1,0.7,0.1
        C281.6,71.8,281.4,71.9,281.3,72z" transform="scale(0.25)" fill-opacity="0.5">
		</path>
	</defs>
	<rect width="100%" height="100%" fill="black">
	</rect>
	<use xlink:href="#paint" fill="rgb(139,29,190)" transform="translate(-7.722325493514757, 7.864120784380731)  rotate(45)">
	</use>
	<use xlink:href="#paint" fill="rgb(127,27,192)" transform="translate(34.65966979258319, -3.380855008422083)  rotate(38.659808254090095)">
	</use>
	<use xlink:href="#paint" fill="rgb(92,2,171)" transform="translate(55.82540050443659, 12.346814547936408)  rotate(30.96375653207352)">
	</use>
	<use xlink:href="#paint" fill="rgb(105,25,198)" transform="translate(86.3338660288059, -1.1335830854641813)  rotate(21.80140948635181)">
	</use>
	<use xlink:href="#paint" fill="rgb(91,20,197)" transform="translate(110.56140795711907, -7.822338626250705)  rotate(11.309932474020215)">
	</use>
	<use xlink:href="#paint" fill="rgb(57,-4,177)" transform="translate(142.79694207680842, 3.773397973233326)  rotate(0)">
	</use>
	<use xlink:href="#paint" fill="rgb(61,10,195)" transform="translate(199.0690797488193, -13.6179524190805)  rotate(-11.309932474020215)">
	</use>
	<use xlink:href="#paint" fill="rgb(40,-1,187)" transform="translate(225.70364166306874, 10.03175041486449)  rotate(-21.80140948635181)">
	</use>
	<use xlink:href="#paint" fill="rgb(27,-4,189)" transform="translate(255.45280824722585, 11.378349664369697)  rotate(-30.96375653207352)">
	</use>
	<use xlink:href="#paint" fill="rgb(28,6,203)" transform="translate(289.06270644340543, -9.45751914223276)  rotate(-38.659808254090095)">
	</use>
	<use xlink:href="#paint" fill="rgb(131,11,169)" transform="translate(-14.009419172019664, 36.76359716965763)  rotate(51.34019174590991)">
	</use>
	<use xlink:href="#paint" fill="rgb(117,7,168)" transform="translate(28.051132231496467, 31.812426438957324)  rotate(45)">
	</use>
	<use xlink:href="#paint" fill="rgb(113,13,178)" transform="translate(69.68581722021275, 43.77879409924222)  rotate(36.86989764584402)">
	</use>
	<use xlink:href="#paint" fill="rgb(94,4,173)" transform="translate(90.39189334016211, 34.83487221106377)  rotate(26.56505117707799)">
	</use>
	<use xlink:href="#paint" fill="rgb(103,23,196)" transform="translate(137.6667400462269, 37.6822995828565)  rotate(14.036243467926479)">
	</use>
	<use xlink:href="#paint" fill="rgb(76,5,182)" transform="translate(148.5611333226066, 20.66796093450214)  rotate(0)">
	</use>
	<use xlink:href="#paint" fill="rgb(65,4,185)" transform="translate(178.24838991299876, 18.560617508187676)  rotate(-14.036243467926479)">
	</use>
	<use xlink:href="#paint" fill="rgb(47,-4,181)" transform="translate(220.2445166277084, 27.269807498352733)  rotate(-26.56505117707799)">
	</use>
	<use xlink:href="#paint" fill="rgb(52,11,199)" transform="translate(234.35685576572655, 33.87992032887753)  rotate(-36.86989764584402)">
	</use>
	<use xlink:href="#paint" fill="rgb(34,3,196)" transform="translate(282.77832864226644, 33.79811464476417)  rotate(-45)">
	</use>
	<use xlink:href="#paint" fill="rgb(144,15,168)" transform="translate(-4.926073806034122, 48.615771568903995)  rotate(59.03624346792648)">
	</use>
	<use xlink:href="#paint" fill="rgb(124,6,162)" transform="translate(16.602647055362883, 55.91375990402656)  rotate(53.13010235415598)">
	</use>
	<use xlink:href="#paint" fill="rgb(112,3,164)" transform="translate(49.10071167191526, 56.45164353147209)  rotate(45)">
	</use>
	<use xlink:href="#paint" fill="rgb(99,-1,164)" transform="translate(85.0140028019712, 59.89949487491067)  rotate(33.690067525979785)">
	</use>
	<use xlink:href="#paint" fill="rgb(90,0,169)" transform="translate(133.2282601169549, 63.12578290944819)  rotate(18.43494882292201)">
	</use>
	<use xlink:href="#paint" fill="rgb(94,13,186)" transform="translate(153.66104241370155, 58.3784978327857)  rotate(0)">
	</use>
	<use xlink:href="#paint" fill="rgb(70,0,176)" transform="translate(195.76342006491046, 55.99889834638978)  rotate(-18.43494882292201)">
	</use>
	<use xlink:href="#paint" fill="rgb(77,16,197)" transform="translate(222.49377829119013, 53.53099204208411)  rotate(-33.690067525979785)">
	</use>
	<use xlink:href="#paint" fill="rgb(50,-1,184)" transform="translate(236.17879647207818, 60.54667596857378)  rotate(-45)">
	</use>
	<use xlink:href="#paint" fill="rgb(31,-10,178)" transform="translate(293.87354807100286, 50.43137092214248)  rotate(-53.13010235415598)">
	</use>
	<use xlink:href="#paint" fill="rgb(167,29,178)" transform="translate(-10.419727509718966, 89.27450309432011)  rotate(68.19859051364818)">
	</use>
	<use xlink:href="#paint" fill="rgb(135,6,159)" transform="translate(27.151274478295036, 105.46024329396913)  rotate(63.43494882292201)">
	</use>
	<use xlink:href="#paint" fill="rgb(148,29,187)" transform="translate(47.50255397254507, 91.66552765572882)  rotate(56.309932474020215)">
	</use>
	<use xlink:href="#paint" fill="rgb(139,30,191)" transform="translate(85.01667438402845, 85.38952535832588)  rotate(45)">
	</use>
	<use xlink:href="#paint" fill="rgb(103,3,168)" transform="translate(137.91618892926053, 104.35897750731323)  rotate(26.56505117707799)">
	</use>
	<use xlink:href="#paint" fill="rgb(91,2,171)" transform="translate(162.38711923525065, 83.95091766744889)  rotate(0)">
	</use>
	<use xlink:href="#paint" fill="rgb(101,21,194)" transform="translate(194.09089498767483, 83.05663093205503)  rotate(-26.56505117707799)">
	</use>
	<use xlink:href="#paint" fill="rgb(66,-4,173)" transform="translate(215.45836304304774, 107.993499834588)  rotate(-45)">
	</use>
	<use xlink:href="#paint" fill="rgb(68,8,189)" transform="translate(248.4052355034391, 106.14148400454148)  rotate(-56.309932474020215)">
	</use>
	<use xlink:href="#paint" fill="rgb(66,15,200)" transform="translate(284.9588041288235, 94.32645956397667)  rotate(-63.43494882292201)">
	</use>
	<use xlink:href="#paint" fill="rgb(178,29,174)" transform="translate(2.246956864643632, 134.32786901947415)  rotate(78.69006752597979)">
	</use>
	<use xlink:href="#paint" fill="rgb(165,27,176)" transform="translate(25.10599455585266, 138.98711436604424)  rotate(75.96375653207353)">
	</use>
	<use xlink:href="#paint" fill="rgb(135,6,159)" transform="translate(69.94294137275898, 115.0795493923894)  rotate(71.56505117707799)">
	</use>
	<use xlink:href="#paint" fill="rgb(129,10,167)" transform="translate(92.3754010063736, 120.1860083078655)  rotate(63.43494882292201)">
	</use>
	<use xlink:href="#paint" fill="rgb(136,27,188)" transform="translate(129.68135733182316, 129.224774651542)  rotate(45)">
	</use>
	<use xlink:href="#paint" fill="rgb(127,27,192)" transform="translate(164.18804487492412, 136.08216113900284)  rotate(0)">
	</use>
	<use xlink:href="#paint" fill="rgb(91,2,170)" transform="translate(182.65215799897715, 111.17842762982585)  rotate(-45)">
	</use>
	<use xlink:href="#paint" fill="rgb(82,2,175)" transform="translate(221.5875808421834, 120.65531577870794)  rotate(-63.43494882292201)">
	</use>
	<use xlink:href="#paint" fill="rgb(65,-5,171)" transform="translate(246.109114987292, 129.46194233917186)  rotate(-71.56505117707799)">
	</use>
	<use xlink:href="#paint" fill="rgb(65,5,186)" transform="translate(279.60721153056346, 130.17030663133121)  rotate(-75.96375653207353)">
	</use>
	<use xlink:href="#paint" fill="rgb(186,28,169)" transform="translate(-8.376583111046966, 159.2086175570792)  rotate(90)">
	</use>
	<use xlink:href="#paint" fill="rgb(181,33,178)" transform="translate(36.160749737499984, 157.19036341319313)  rotate(90)">
	</use>
	<use xlink:href="#paint" fill="rgb(148,9,159)" transform="translate(50.936773773144836, 154.8481049998844)  rotate(90)">
	</use>
	<use xlink:href="#paint" fill="rgb(145,17,170)" transform="translate(98.45613715147306, 148.17812705853973)  rotate(90)">
	</use>
	<use xlink:href="#paint" fill="rgb(132,13,171)" transform="translate(118.78630354045771, 164.02333657895338)  rotate(90)">
	</use>
	<use xlink:href="#paint" fill="rgb(115,6,167)" transform="translate(159.1563386535731, 157.70211891920422)  rotate(0)">
	</use>
	<use xlink:href="#paint" fill="rgb(112,13,178)" transform="translate(194.43119933926556, 160.67140060868584)  rotate(-90)">
	</use>
	<use xlink:href="#paint" fill="rgb(102,12,182)" transform="translate(202.47561565804668, 152.0959799248286)  rotate(-90)">
	</use>
	<use xlink:href="#paint" fill="rgb(92,13,186)" transform="translate(254.14346765907578, 166.76894144272396)  rotate(-90)">
	</use>
	<use xlink:href="#paint" fill="rgb(80,10,188)" transform="translate(264.74597208816846, 162.54976640623192)  rotate(-90)">
	</use>
	<use xlink:href="#paint" fill="rgb(187,19,157)" transform="translate(3.801033244087158, 176.18151375945172)  rotate(101.30993247402021)">
	</use>
	<use xlink:href="#paint" fill="rgb(187,30,171)" transform="translate(30.830908622096516, 191.73056656737265)  rotate(104.03624346792648)">
	</use>
	<use xlink:href="#paint" fill="rgb(184,36,182)" transform="translate(50.1713838847831, 198.37227169410318)  rotate(108.43494882292202)">
	</use>
	<use xlink:href="#paint" fill="rgb(146,7,157)" transform="translate(89.81070112263129, 183.9392443021363)  rotate(116.56505117707799)">
	</use>
	<use xlink:href="#paint" fill="rgb(142,14,167)" transform="translate(115.19736196967912, 172.94038686955622)  rotate(135)">
	</use>
	<use xlink:href="#paint" fill="rgb(121,2,160)" transform="translate(165.1303499898836, 188.89898243401043)  rotate(180)">
	</use>
	<use xlink:href="#paint" fill="rgb(130,21,182)" transform="translate(191.33513163275438, 172.9247198023136)  rotate(-135)">
	</use>
	<use xlink:href="#paint" fill="rgb(123,24,189)" transform="translate(208.23491333927757, 196.84540235455697)  rotate(-116.56505117707799)">
	</use>
	<use xlink:href="#paint" fill="rgb(87,-3,167)" transform="translate(239.01614456415277, 200.9081820326423)  rotate(-108.43494882292202)">
	</use>
	<use xlink:href="#paint" fill="rgb(80,1,174)" transform="translate(287.69318197692684, 186.5281066442186)  rotate(-104.03624346792648)">
	</use>
	<use xlink:href="#paint" fill="rgb(196,19,153)" transform="translate(9.054395150134162, 224.9261874208802)  rotate(111.80140948635183)">
	</use>
	<use xlink:href="#paint" fill="rgb(186,19,157)" transform="translate(40.64792983918651, 215.65699447875784)  rotate(116.56505117707799)">
	</use>
	<use xlink:href="#paint" fill="rgb(176,19,160)" transform="translate(74.12782512483528, 204.3690309472708)  rotate(123.6900675259798)">
	</use>
	<use xlink:href="#paint" fill="rgb(161,13,158)" transform="translate(84.16316373522073, 209.51188321971483)  rotate(135)">
	</use>
	<use xlink:href="#paint" fill="rgb(158,20,170)" transform="translate(115.6835427368911, 223.3843550368868)  rotate(153.434948822922)">
	</use>
	<use xlink:href="#paint" fill="rgb(143,15,168)" transform="translate(169.75308905626437, 227.42902425071813)  rotate(180)">
	</use>
	<use xlink:href="#paint" fill="rgb(122,3,160)" transform="translate(177.0135906355005, 217.2547318841747)  rotate(-153.434948822922)">
	</use>
	<use xlink:href="#paint" fill="rgb(128,19,180)" transform="translate(208.87190681628027, 215.65212368765785)  rotate(-135)">
	</use>
	<use xlink:href="#paint" fill="rgb(122,23,188)" transform="translate(238.73887066525316, 227.08168231867987)  rotate(-123.6900675259798)">
	</use>
	<use xlink:href="#paint" fill="rgb(91,1,171)" transform="translate(272.99683515851973, 222.4273595886583)  rotate(-116.56505117707799)">
	</use>
	<use xlink:href="#paint" fill="rgb(211,24,154)" transform="translate(8.660748743189842, 254.0861129059287)  rotate(120.96375653207352)">
	</use>
	<use xlink:href="#paint" fill="rgb(205,28,162)" transform="translate(43.067537691871706, 245.67608035027098)  rotate(126.86989764584402)">
	</use>
	<use xlink:href="#paint" fill="rgb(204,37,175)" transform="translate(52.310850916052516, 249.40130591676603)  rotate(135)">
	</use>
	<use xlink:href="#paint" fill="rgb(192,35,176)" transform="translate(98.68890305665113, 234.24150681421148)  rotate(146.30993247402023)">
	</use>
	<use xlink:href="#paint" fill="rgb(173,25,171)" transform="translate(131.11682432424556, 238.07266812641328)  rotate(161.565051177078)">
	</use>
	<use xlink:href="#paint" fill="rgb(147,9,159)" transform="translate(169.51793484103115, 237.2725909276914)  rotate(180)">
	</use>
	<use xlink:href="#paint" fill="rgb(157,29,182)" transform="translate(186.03346866204737, 261.2880798104092)  rotate(-161.565051177078)">
	</use>
	<use xlink:href="#paint" fill="rgb(134,16,174)" transform="translate(214.3887222804143, 237.23474930641908)  rotate(-146.30993247402023)">
	</use>
	<use xlink:href="#paint" fill="rgb(132,24,185)" transform="translate(247.04244213497816, 246.1632257800739)  rotate(-135)">
	</use>
	<use xlink:href="#paint" fill="rgb(105,6,172)" transform="translate(281.71707130824205, 248.8193650151918)  rotate(-126.86989764584402)">
	</use>
	<use xlink:href="#paint" fill="rgb(219,22,148)" transform="translate(-3.564123526674024, 278.4890709539035)  rotate(128.6598082540901)">
	</use>
	<use xlink:href="#paint" fill="rgb(205,19,148)" transform="translate(20.207915024313166, 277.97390531374174)  rotate(135)">
	</use>
	<use xlink:href="#paint" fill="rgb(211,34,168)" transform="translate(57.623452444724094, 272.59157829348726)  rotate(143.13010235415598)">
	</use>
	<use xlink:href="#paint" fill="rgb(187,20,158)" transform="translate(81.61932551133931, 288.6155741786345)  rotate(153.434948822922)">
	</use>
	<use xlink:href="#paint" fill="rgb(171,14,155)" transform="translate(109.94762649298175, 287.16699930889007)  rotate(165.96375653207352)">
	</use>
	<use xlink:href="#paint" fill="rgb(177,29,175)" transform="translate(163.5729970974524, 270.63222207844814)  rotate(180)">
	</use>
	<use xlink:href="#paint" fill="rgb(162,25,174)" transform="translate(181.20879225369717, 273.5442551917299)  rotate(-165.96375653207352)">
	</use>
	<use xlink:href="#paint" fill="rgb(139,11,164)" transform="translate(220.5738676803768, 290.1873221849367)  rotate(-153.434948822922)">
	</use>
	<use xlink:href="#paint" fill="rgb(137,19,177)" transform="translate(255.75863979946172, 281.85170765483485)  rotate(-143.13010235415598)">
	</use>
	<use xlink:href="#paint" fill="rgb(130,22,183)" transform="translate(283.50306269481393, 292.2509152361122)  rotate(-135)">
	</use>
</svg>
