<svg version="1.1" xmlns="http://www.w3.org/2000/svg" xmlns:xlink="http://www.w3.org/1999/xlink" viewBox="-10 0 159.11199999999997 154.316" preserveAspectRatio="xMidYMid slice" width="159.11199999999997" height="174.316"><defs>
          <path id="pentagon" d="M 0 0 L 6.95 39.39 L -37.59 13.68 L -37.59 -13.68 L 6.95 -39.39 L 29.28 0 L 6.95 39.39 Z"></path>
          </defs>
          <rect width="100%" height="100%" fill="black"></rect>
          <use xlink:href="#pentagon" fill="rgb(136,12,168)" transform="translate(0, 15.76) scale(0.25) rotate(270)"></use>
          <use xlink:href="#pentagon" fill="rgb(147,27,185)" transform="translate(-11.71, 0) scale(0.25) rotate(180)"></use>
          <use xlink:href="#pentagon" fill="rgb(125,9,167)" transform="translate(11.71, 0) scale(0.25) rotate(0)"></use>
          <use xlink:href="#pentagon" fill="rgb(124,12,172)" transform="translate(0, -15.76) scale(0.25) rotate(90)"></use>
          <use xlink:href="#pentagon" fill="rgb(136,28,190)" transform="translate(26.35, 43.33) scale(0.25) rotate(270)"></use>
          <use xlink:href="#pentagon" fill="rgb(126,23,186)" transform="translate(14.64, 27.57) scale(0.25) rotate(180)"></use>
          <use xlink:href="#pentagon" fill="rgb(118,18,183)" transform="translate(38.06, 27.57) scale(0.25) rotate(0)"></use>
          <use xlink:href="#pentagon" fill="rgb(108,12,179)" transform="translate(26.35, 11.82) scale(0.25) rotate(90)"></use>
          <use xlink:href="#pentagon" fill="rgb(104,13,181)" transform="translate(52.7, 15.76) scale(0.25) rotate(270)"></use>
          <use xlink:href="#pentagon" fill="rgb(97,9,179)" transform="translate(40.99, 0) scale(0.25) rotate(180)"></use>
          <use xlink:href="#pentagon" fill="rgb(92,8,180)" transform="translate(64.42, 0) scale(0.25) rotate(0)"></use>
          <use xlink:href="#pentagon" fill="rgb(92,13,186)" transform="translate(52.7, -15.76) scale(0.25) rotate(90)"></use>
          <use xlink:href="#pentagon" fill="rgb(81,6,181)" transform="translate(79.06, 43.33) scale(0.25) rotate(270)"></use>
          <use xlink:href="#pentagon" fill="rgb(72,1,178)" transform="translate(67.34, 27.57) scale(0.25) rotate(180)"></use>
          <use xlink:href="#pentagon" fill="rgb(75,8,186)" transform="translate(90.77, 27.57) scale(0.25) rotate(0)"></use>
          <use xlink:href="#pentagon" fill="rgb(59,-4,176)" transform="translate(79.06, 11.82) scale(0.25) rotate(90)"></use>
          <use xlink:href="#pentagon" fill="rgb(69,10,192)" transform="translate(105.41, 15.76) scale(0.25) rotate(270)"></use>
          <use xlink:href="#pentagon" fill="rgb(52,-3,180)" transform="translate(93.7, 0) scale(0.25) rotate(180)"></use>
          <use xlink:href="#pentagon" fill="rgb(43,-8,177)" transform="translate(117.12, 0) scale(0.25) rotate(0)"></use>
          <use xlink:href="#pentagon" fill="rgb(39,-8,179)" transform="translate(105.41, -15.76) scale(0.25) rotate(90)"></use>
          <use xlink:href="#pentagon" fill="rgb(59,17,205)" transform="translate(131.76, 43.33) scale(0.25) rotate(270)"></use>
          <use xlink:href="#pentagon" fill="rgb(34,-5,185)" transform="translate(120.05, 27.57) scale(0.25) rotate(180)"></use>
          <use xlink:href="#pentagon" fill="rgb(27,-8,184)" transform="translate(143.47, 27.57) scale(0.25) rotate(0)"></use>
          <use xlink:href="#pentagon" fill="rgb(22,-8,185)" transform="translate(131.76, 11.82) scale(0.25) rotate(90)"></use>
          <use xlink:href="#pentagon" fill="rgb(169,13,156)" transform="translate(0, 70.9) scale(0.25) rotate(270)"></use>
          <use xlink:href="#pentagon" fill="rgb(179,27,171)" transform="translate(-11.71, 55.15) scale(0.25) rotate(180)"></use>
          <use xlink:href="#pentagon" fill="rgb(168,20,165)" transform="translate(11.71, 55.15) scale(0.25) rotate(0)"></use>
          <use xlink:href="#pentagon" fill="rgb(160,16,164)" transform="translate(0, 39.39) scale(0.25) rotate(90)"></use>
          <use xlink:href="#pentagon" fill="rgb(150,11,160)" transform="translate(26.35, 98.48) scale(0.25) rotate(270)"></use>
          <use xlink:href="#pentagon" fill="rgb(145,10,160)" transform="translate(14.64, 82.72) scale(0.25) rotate(180)"></use>
          <use xlink:href="#pentagon" fill="rgb(140,8,160)" transform="translate(38.06, 82.72) scale(0.25) rotate(0)"></use>
          <use xlink:href="#pentagon" fill="rgb(159,32,186)" transform="translate(26.35, 66.96) scale(0.25) rotate(90)"></use>
          <use xlink:href="#pentagon" fill="rgb(136,13,168)" transform="translate(52.7, 70.9) scale(0.25) rotate(270)"></use>
          <use xlink:href="#pentagon" fill="rgb(148,29,186)" transform="translate(40.99, 55.15) scale(0.25) rotate(180)"></use>
          <use xlink:href="#pentagon" fill="rgb(135,20,178)" transform="translate(64.42, 55.15) scale(0.25) rotate(0)"></use>
          <use xlink:href="#pentagon" fill="rgb(116,5,165)" transform="translate(52.7, 39.39) scale(0.25) rotate(90)"></use>
          <use xlink:href="#pentagon" fill="rgb(124,17,179)" transform="translate(79.06, 98.48) scale(0.25) rotate(270)"></use>
          <use xlink:href="#pentagon" fill="rgb(104,1,164)" transform="translate(67.34, 82.72) scale(0.25) rotate(180)"></use>
          <use xlink:href="#pentagon" fill="rgb(113,14,179)" transform="translate(90.77, 82.72) scale(0.25) rotate(0)"></use>
          <use xlink:href="#pentagon" fill="rgb(109,14,181)" transform="translate(79.06, 66.96) scale(0.25) rotate(90)"></use>
          <use xlink:href="#pentagon" fill="rgb(107,16,184)" transform="translate(105.41, 70.9) scale(0.25) rotate(270)"></use>
          <use xlink:href="#pentagon" fill="rgb(102,15,185)" transform="translate(93.7, 55.15) scale(0.25) rotate(180)"></use>
          <use xlink:href="#pentagon" fill="rgb(96,13,185)" transform="translate(117.12, 55.15) scale(0.25) rotate(0)"></use>
          <use xlink:href="#pentagon" fill="rgb(100,22,195)" transform="translate(105.41, 39.39) scale(0.25) rotate(90)"></use>
          <use xlink:href="#pentagon" fill="rgb(75,0,175)" transform="translate(131.76, 98.48) scale(0.25) rotate(270)"></use>
          <use xlink:href="#pentagon" fill="rgb(87,16,193)" transform="translate(120.05, 82.72) scale(0.25) rotate(180)"></use>
          <use xlink:href="#pentagon" fill="rgb(84,18,196)" transform="translate(143.47, 82.72) scale(0.25) rotate(0)"></use>
          <use xlink:href="#pentagon" fill="rgb(66,4,184)" transform="translate(131.76, 66.96) scale(0.25) rotate(90)"></use>
          <use xlink:href="#pentagon" fill="rgb(210,22,151)" transform="translate(0, 126.05) scale(0.25) rotate(270)"></use>
          <use xlink:href="#pentagon" fill="rgb(202,18,149)" transform="translate(-11.71, 110.29) scale(0.25) rotate(180)"></use>
          <use xlink:href="#pentagon" fill="rgb(213,33,166)" transform="translate(11.71, 110.29) scale(0.25) rotate(0)"></use>
          <use xlink:href="#pentagon" fill="rgb(207,32,166)" transform="translate(0, 94.54) scale(0.25) rotate(90)"></use>
          <use xlink:href="#pentagon" fill="rgb(210,39,175)" transform="translate(26.35, 153.62) scale(0.25) rotate(270)"></use>
          <use xlink:href="#pentagon" fill="rgb(183,15,153)" transform="translate(14.64, 137.87) scale(0.25) rotate(180)"></use>
          <use xlink:href="#pentagon" fill="rgb(188,25,164)" transform="translate(38.06, 137.87) scale(0.25) rotate(0)"></use>
          <use xlink:href="#pentagon" fill="rgb(183,24,165)" transform="translate(26.35, 122.11) scale(0.25) rotate(90)"></use>
          <use xlink:href="#pentagon" fill="rgb(192,36,179)" transform="translate(52.7, 126.05) scale(0.25) rotate(270)"></use>
          <use xlink:href="#pentagon" fill="rgb(169,18,162)" transform="translate(40.99, 110.29) scale(0.25) rotate(180)"></use>
          <use xlink:href="#pentagon" fill="rgb(155,8,154)" transform="translate(64.42, 110.29) scale(0.25) rotate(0)"></use>
          <use xlink:href="#pentagon" fill="rgb(157,13,161)" transform="translate(52.7, 94.54) scale(0.25) rotate(90)"></use>
          <use xlink:href="#pentagon" fill="rgb(174,35,184)" transform="translate(79.06, 153.62) scale(0.25) rotate(270)"></use>
          <use xlink:href="#pentagon" fill="rgb(152,17,168)" transform="translate(67.34, 137.87) scale(0.25) rotate(180)"></use>
          <use xlink:href="#pentagon" fill="rgb(150,18,171)" transform="translate(90.77, 137.87) scale(0.25) rotate(0)"></use>
          <use xlink:href="#pentagon" fill="rgb(131,4,158)" transform="translate(79.06, 122.11) scale(0.25) rotate(90)"></use>
          <use xlink:href="#pentagon" fill="rgb(134,11,167)" transform="translate(105.41, 126.05) scale(0.25) rotate(270)"></use>
          <use xlink:href="#pentagon" fill="rgb(133,14,171)" transform="translate(93.7, 110.29) scale(0.25) rotate(180)"></use>
          <use xlink:href="#pentagon" fill="rgb(137,22,181)" transform="translate(117.12, 110.29) scale(0.25) rotate(0)"></use>
          <use xlink:href="#pentagon" fill="rgb(127,16,177)" transform="translate(105.41, 94.54) scale(0.25) rotate(90)"></use>
          <use xlink:href="#pentagon" fill="rgb(133,26,188)" transform="translate(131.76, 153.62) scale(0.25) rotate(270)"></use>
          <use xlink:href="#pentagon" fill="rgb(109,7,171)" transform="translate(120.05, 137.87) scale(0.25) rotate(180)"></use>
          <use xlink:href="#pentagon" fill="rgb(101,3,169)" transform="translate(143.47, 137.87) scale(0.25) rotate(0)"></use>
          <use xlink:href="#pentagon" fill="rgb(102,7,174)" transform="translate(131.76, 122.11) scale(0.25) rotate(90)"></use>
        </svg>