<svg version="1.1" xmlns="http://www.w3.org/2000/svg" xmlns:xlink="http://www.w3.org/1999/xlink" viewBox="-50 -40 289.5 234.39419162443235"
          preserveAspectRatio="xMidYMid slice" width="189.5" height="154.39419162443235">
          <defs>
            <path id="fans" d="M -30,0 a30,30 0 0,1 60,0 a30,30 0 0,0 -30,30 a30,30 0 0,0 -30,-30 Z"></path>
          </defs>
          <rect width="100%" height="100%" fill="black"></rect>
          <use xlink:href="#fans" fill="rgb(105,4,168)" transform="translate(31.5, 0) "></use>
          <use xlink:href="#fans" fill="rgb(74,5,183)" transform="translate(94.5, 0) "></use>
          <use xlink:href="#fans" fill="rgb(48,12,202)" transform="translate(157.5, 0) "></use>
          <use xlink:href="#fans" fill="rgb(124,6,164)" transform="translate(0, 27.98) "></use>
          <use xlink:href="#fans" fill="rgb(105,20,191)" transform="translate(63, 27.98) "></use>
          <use xlink:href="#fans" fill="rgb(60,8,191)" transform="translate(126, 27.98) "></use>
          <use xlink:href="#fans" fill="rgb(147,14,165)" transform="translate(31.5, 55.96) "></use>
          <use xlink:href="#fans" fill="rgb(109,8,173)" transform="translate(94.5, 55.96) "></use>
          <use xlink:href="#fans" fill="rgb(75,6,184)" transform="translate(157.5, 55.96) "></use>
          <use xlink:href="#fans" fill="rgb(170,20,165)" transform="translate(0, 83.94) "></use>
          <use xlink:href="#fans" fill="rgb(125,8,166)" transform="translate(63, 83.94) "></use>
          <use xlink:href="#fans" fill="rgb(99,15,186)" transform="translate(126, 83.94) "></use>
          <use xlink:href="#fans" fill="rgb(202,36,174)" transform="translate(31.5, 111.92) "></use>
          <use xlink:href="#fans" fill="rgb(146,13,164)" transform="translate(94.5, 111.92) "></use>
          <use xlink:href="#fans" fill="rgb(113,12,177)" transform="translate(157.5, 111.92) "></use>
          <use xlink:href="#fans" fill="rgb(196,15,146)" transform="translate(0, 139.9) "></use>
          <use xlink:href="#fans" fill="rgb(160,11,156)" transform="translate(63, 139.9) "></use>
          <use xlink:href="#fans" fill="rgb(139,22,180)" transform="translate(126, 139.9) "></use>
        </svg>