<svg version="1.1" xmlns="http://www.w3.org/2000/svg" xmlns:xlink="http://www.w3.org/1999/xlink" viewBox="0 0 100 100" preserveAspectRatio="xMidYMid slice" width="100" height="100">
	<defs>
	</defs>
	<rect width="100%" height="100%" fill="black">
	</rect>
	<line x1="0" y1="0" x2="3" y2="3" stroke-width="1" stroke="rgb(126,16,177)">
	</line>
	<line x1="3" y1="3" x2="3" y2="9" stroke-width="1" stroke="rgb(126,16,177)">
	</line>
	<line x1="3" y1="9" x2="9" y2="9" stroke-width="1" stroke="rgb(126,16,177)">
	</line>
	<line x1="9" y1="9" x2="9" y2="3" stroke-width="1" stroke="rgb(126,16,177)">
	</line>
	<line x1="9" y1="3" x2="15" y2="3" stroke-width="1" stroke="rgb(126,16,177)">
	</line>
	<line x1="15" y1="3" x2="21" y2="3" stroke-width="1" stroke="rgb(103,13,181)">
	</line>
	<line x1="21" y1="3" x2="21" y2="9" stroke-width="1" stroke="rgb(103,13,181)">
	</line>
	<line x1="21" y1="9" x2="15" y2="9" stroke-width="1" stroke="rgb(126,16,177)">
	</line>
	<line x1="15" y1="9" x2="15" y2="15" stroke-width="1" stroke="rgb(126,16,177)">
	</line>
	<line x1="15" y1="15" x2="21" y2="15" stroke-width="1" stroke="rgb(103,13,181)">
	</line>
	<line x1="21" y1="15" x2="21" y2="21" stroke-width="1" stroke="rgb(125,16,177)">
	</line>
	<line x1="21" y1="21" x2="15" y2="21" stroke-width="1" stroke="rgb(147,19,172)">
	</line>
	<line x1="15" y1="21" x2="9" y2="21" stroke-width="1" stroke="rgb(147,19,172)">
	</line>
	<line x1="9" y1="21" x2="9" y2="15" stroke-width="1" stroke="rgb(126,16,177)">
	</line>
	<line x1="9" y1="15" x2="3" y2="15" stroke-width="1" stroke="rgb(126,16,177)">
	</line>
	<line x1="3" y1="15" x2="3" y2="21" stroke-width="1" stroke="rgb(147,19,172)">
	</line>
	<line x1="3" y1="21" x2="3" y2="28" stroke-width="1" stroke="rgb(147,19,172)">
	</line>
	<line x1="3" y1="28" x2="9" y2="28" stroke-width="1" stroke="rgb(147,19,172)">
	</line>
	<line x1="9" y1="28" x2="9" y2="34" stroke-width="1" stroke="rgb(147,19,172)">
	</line>
	<line x1="9" y1="34" x2="3" y2="34" stroke-width="1" stroke="rgb(147,19,172)">
	</line>
	<line x1="3" y1="34" x2="3" y2="40" stroke-width="1" stroke="rgb(170,22,167)">
	</line>
	<line x1="3" y1="40" x2="3" y2="46" stroke-width="1" stroke="rgb(170,22,167)">
	</line>
	<line x1="3" y1="46" x2="9" y2="46" stroke-width="1" stroke="rgb(170,22,167)">
	</line>
	<line x1="9" y1="46" x2="9" y2="40" stroke-width="1" stroke="rgb(170,22,167)">
	</line>
	<line x1="9" y1="40" x2="15" y2="40" stroke-width="1" stroke="rgb(170,22,167)">
	</line>
	<line x1="15" y1="40" x2="15" y2="46" stroke-width="1" stroke="rgb(170,22,167)">
	</line>
	<line x1="15" y1="46" x2="21" y2="46" stroke-width="1" stroke="rgb(148,19,172)">
	</line>
	<line x1="21" y1="46" x2="21" y2="40" stroke-width="1" stroke="rgb(148,19,172)">
	</line>
	<line x1="21" y1="40" x2="21" y2="34" stroke-width="1" stroke="rgb(125,16,177)">
	</line>
	<line x1="21" y1="34" x2="15" y2="34" stroke-width="1" stroke="rgb(147,19,172)">
	</line>
	<line x1="15" y1="34" x2="15" y2="28" stroke-width="1" stroke="rgb(147,19,172)">
	</line>
	<line x1="15" y1="28" x2="21" y2="28" stroke-width="1" stroke="rgb(125,16,177)">
	</line>
	<line x1="21" y1="28" x2="28" y2="28" stroke-width="1" stroke="rgb(125,16,177)">
	</line>
	<line x1="28" y1="28" x2="34" y2="28" stroke-width="1" stroke="rgb(125,16,177)">
	</line>
	<line x1="34" y1="28" x2="34" y2="34" stroke-width="1" stroke="rgb(125,16,177)">
	</line>
	<line x1="34" y1="34" x2="28" y2="34" stroke-width="1" stroke="rgb(125,16,177)">
	</line>
	<line x1="28" y1="34" x2="28" y2="40" stroke-width="1" stroke="rgb(148,19,172)">
	</line>
	<line x1="28" y1="40" x2="28" y2="46" stroke-width="1" stroke="rgb(148,19,172)">
	</line>
	<line x1="28" y1="46" x2="34" y2="46" stroke-width="1" stroke="rgb(148,19,172)">
	</line>
	<line x1="34" y1="46" x2="34" y2="40" stroke-width="1" stroke="rgb(148,19,172)">
	</line>
	<line x1="34" y1="40" x2="40" y2="40" stroke-width="1" stroke="rgb(125,16,177)">
	</line>
	<line x1="40" y1="40" x2="40" y2="46" stroke-width="1" stroke="rgb(125,16,177)">
	</line>
	<line x1="40" y1="46" x2="46" y2="46" stroke-width="1" stroke="rgb(125,16,177)">
	</line>
	<line x1="46" y1="46" x2="46" y2="40" stroke-width="1" stroke="rgb(125,16,177)">
	</line>
	<line x1="46" y1="40" x2="46" y2="34" stroke-width="1" stroke="rgb(102,13,182)">
	</line>
	<line x1="46" y1="34" x2="40" y2="34" stroke-width="1" stroke="rgb(102,13,182)">
	</line>
	<line x1="40" y1="34" x2="40" y2="28" stroke-width="1" stroke="rgb(102,13,182)">
	</line>
	<line x1="40" y1="28" x2="46" y2="28" stroke-width="1" stroke="rgb(102,13,182)">
	</line>
	<line x1="46" y1="28" x2="46" y2="21" stroke-width="1" stroke="rgb(102,13,182)">
	</line>
	<line x1="46" y1="21" x2="46" y2="15" stroke-width="1" stroke="rgb(80,9,186)">
	</line>
	<line x1="46" y1="15" x2="40" y2="15" stroke-width="1" stroke="rgb(80,9,186)">
	</line>
	<line x1="40" y1="15" x2="40" y2="21" stroke-width="1" stroke="rgb(102,13,182)">
	</line>
	<line x1="40" y1="21" x2="34" y2="21" stroke-width="1" stroke="rgb(125,16,177)">
	</line>
	<line x1="34" y1="21" x2="28" y2="21" stroke-width="1" stroke="rgb(125,16,177)">
	</line>
	<line x1="28" y1="21" x2="28" y2="15" stroke-width="1" stroke="rgb(103,13,181)">
	</line>
	<line x1="28" y1="15" x2="34" y2="15" stroke-width="1" stroke="rgb(103,13,181)">
	</line>
	<line x1="34" y1="15" x2="34" y2="9" stroke-width="1" stroke="rgb(103,13,181)">
	</line>
	<line x1="34" y1="9" x2="28" y2="9" stroke-width="1" stroke="rgb(103,13,181)">
	</line>
	<line x1="28" y1="9" x2="28" y2="3" stroke-width="1" stroke="rgb(103,13,181)">
	</line>
	<line x1="28" y1="3" x2="34" y2="3" stroke-width="1" stroke="rgb(103,13,181)">
	</line>
	<line x1="34" y1="3" x2="40" y2="3" stroke-width="1" stroke="rgb(80,9,186)">
	</line>
	<line x1="40" y1="3" x2="40" y2="9" stroke-width="1" stroke="rgb(80,9,186)">
	</line>
	<line x1="40" y1="9" x2="46" y2="9" stroke-width="1" stroke="rgb(80,9,186)">
	</line>
	<line x1="46" y1="9" x2="46" y2="3" stroke-width="1" stroke="rgb(80,9,186)">
	</line>
	<line x1="46" y1="3" x2="53" y2="3" stroke-width="1" stroke="rgb(80,9,186)">
	</line>
	<line x1="53" y1="3" x2="59" y2="3" stroke-width="1" stroke="rgb(80,9,186)">
	</line>
	<line x1="59" y1="3" x2="59" y2="9" stroke-width="1" stroke="rgb(80,9,186)">
	</line>
	<line x1="59" y1="9" x2="53" y2="9" stroke-width="1" stroke="rgb(80,9,186)">
	</line>
	<line x1="53" y1="9" x2="53" y2="15" stroke-width="1" stroke="rgb(80,9,186)">
	</line>
	<line x1="53" y1="15" x2="53" y2="21" stroke-width="1" stroke="rgb(102,13,182)">
	</line>
	<line x1="53" y1="21" x2="59" y2="21" stroke-width="1" stroke="rgb(102,13,182)">
	</line>
	<line x1="59" y1="21" x2="59" y2="15" stroke-width="1" stroke="rgb(80,9,186)">
	</line>
	<line x1="59" y1="15" x2="65" y2="15" stroke-width="1" stroke="rgb(57,6,191)">
	</line>
	<line x1="65" y1="15" x2="65" y2="21" stroke-width="1" stroke="rgb(80,9,186)">
	</line>
	<line x1="65" y1="21" x2="71" y2="21" stroke-width="1" stroke="rgb(80,9,186)">
	</line>
	<line x1="71" y1="21" x2="71" y2="15" stroke-width="1" stroke="rgb(57,6,191)">
	</line>
	<line x1="71" y1="15" x2="71" y2="9" stroke-width="1" stroke="rgb(57,6,191)">
	</line>
	<line x1="71" y1="9" x2="65" y2="9" stroke-width="1" stroke="rgb(57,6,191)">
	</line>
	<line x1="65" y1="9" x2="65" y2="3" stroke-width="1" stroke="rgb(57,6,191)">
	</line>
	<line x1="65" y1="3" x2="71" y2="3" stroke-width="1" stroke="rgb(57,6,191)">
	</line>
	<line x1="71" y1="3" x2="78" y2="3" stroke-width="1" stroke="rgb(57,6,191)">
	</line>
	<line x1="78" y1="3" x2="78" y2="9" stroke-width="1" stroke="rgb(57,6,191)">
	</line>
	<line x1="78" y1="9" x2="84" y2="9" stroke-width="1" stroke="rgb(35,3,196)">
	</line>
	<line x1="84" y1="9" x2="84" y2="3" stroke-width="1" stroke="rgb(35,3,196)">
	</line>
	<line x1="84" y1="3" x2="90" y2="3" stroke-width="1" stroke="rgb(35,3,196)">
	</line>
	<line x1="90" y1="3" x2="96" y2="3" stroke-width="1" stroke="rgb(35,3,196)">
	</line>
	<line x1="96" y1="3" x2="96" y2="9" stroke-width="1" stroke="rgb(35,3,196)">
	</line>
	<line x1="96" y1="9" x2="90" y2="9" stroke-width="1" stroke="rgb(35,3,196)">
	</line>
	<line x1="90" y1="9" x2="90" y2="15" stroke-width="1" stroke="rgb(35,3,196)">
	</line>
	<line x1="90" y1="15" x2="96" y2="15" stroke-width="1" stroke="rgb(35,3,196)">
	</line>
	<line x1="96" y1="15" x2="96" y2="21" stroke-width="1" stroke="rgb(57,6,191)">
	</line>
	<line x1="96" y1="21" x2="90" y2="21" stroke-width="1" stroke="rgb(57,6,191)">
	</line>
	<line x1="90" y1="21" x2="84" y2="21" stroke-width="1" stroke="rgb(57,6,191)">
	</line>
	<line x1="84" y1="21" x2="84" y2="15" stroke-width="1" stroke="rgb(35,3,196)">
	</line>
	<line x1="84" y1="15" x2="78" y2="15" stroke-width="1" stroke="rgb(57,6,191)">
	</line>
	<line x1="78" y1="15" x2="78" y2="21" stroke-width="1" stroke="rgb(80,9,186)">
	</line>
	<line x1="78" y1="21" x2="78" y2="28" stroke-width="1" stroke="rgb(80,9,186)">
	</line>
	<line x1="78" y1="28" x2="78" y2="34" stroke-width="1" stroke="rgb(80,9,186)">
	</line>
	<line x1="78" y1="34" x2="84" y2="34" stroke-width="1" stroke="rgb(57,6,191)">
	</line>
	<line x1="84" y1="34" x2="84" y2="28" stroke-width="1" stroke="rgb(57,6,191)">
	</line>
	<line x1="84" y1="28" x2="90" y2="28" stroke-width="1" stroke="rgb(57,6,191)">
	</line>
	<line x1="90" y1="28" x2="96" y2="28" stroke-width="1" stroke="rgb(57,6,191)">
	</line>
	<line x1="96" y1="28" x2="96" y2="34" stroke-width="1" stroke="rgb(57,6,191)">
	</line>
	<line x1="96" y1="34" x2="90" y2="34" stroke-width="1" stroke="rgb(57,6,191)">
	</line>
	<line x1="90" y1="34" x2="90" y2="40" stroke-width="1" stroke="rgb(79,9,186)">
	</line>
	<line x1="90" y1="40" x2="96" y2="40" stroke-width="1" stroke="rgb(79,9,186)">
	</line>
	<line x1="96" y1="40" x2="96" y2="46" stroke-width="1" stroke="rgb(79,9,186)">
	</line>
	<line x1="96" y1="46" x2="90" y2="46" stroke-width="1" stroke="rgb(79,9,186)">
	</line>
	<line x1="90" y1="46" x2="84" y2="46" stroke-width="1" stroke="rgb(79,9,186)">
	</line>
	<line x1="84" y1="46" x2="84" y2="40" stroke-width="1" stroke="rgb(79,9,186)">
	</line>
	<line x1="84" y1="40" x2="78" y2="40" stroke-width="1" stroke="rgb(102,12,182)">
	</line>
	<line x1="78" y1="40" x2="78" y2="46" stroke-width="1" stroke="rgb(102,12,182)">
	</line>
	<line x1="78" y1="46" x2="71" y2="46" stroke-width="1" stroke="rgb(102,12,182)">
	</line>
	<line x1="71" y1="46" x2="65" y2="46" stroke-width="1" stroke="rgb(102,12,182)">
	</line>
	<line x1="65" y1="46" x2="65" y2="40" stroke-width="1" stroke="rgb(102,12,182)">
	</line>
	<line x1="65" y1="40" x2="71" y2="40" stroke-width="1" stroke="rgb(102,12,182)">
	</line>
	<line x1="71" y1="40" x2="71" y2="34" stroke-width="1" stroke="rgb(80,9,186)">
	</line>
	<line x1="71" y1="34" x2="71" y2="28" stroke-width="1" stroke="rgb(80,9,186)">
	</line>
	<line x1="71" y1="28" x2="65" y2="28" stroke-width="1" stroke="rgb(80,9,186)">
	</line>
	<line x1="65" y1="28" x2="65" y2="34" stroke-width="1" stroke="rgb(80,9,186)">
	</line>
	<line x1="65" y1="34" x2="59" y2="34" stroke-width="1" stroke="rgb(102,13,182)">
	</line>
	<line x1="59" y1="34" x2="59" y2="28" stroke-width="1" stroke="rgb(102,13,182)">
	</line>
	<line x1="59" y1="28" x2="53" y2="28" stroke-width="1" stroke="rgb(102,13,182)">
	</line>
	<line x1="53" y1="28" x2="53" y2="34" stroke-width="1" stroke="rgb(102,13,182)">
	</line>
	<line x1="53" y1="34" x2="53" y2="40" stroke-width="1" stroke="rgb(125,16,177)">
	</line>
	<line x1="53" y1="40" x2="59" y2="40" stroke-width="1" stroke="rgb(125,16,177)">
	</line>
	<line x1="59" y1="40" x2="59" y2="46" stroke-width="1" stroke="rgb(125,16,177)">
	</line>
	<line x1="59" y1="46" x2="53" y2="46" stroke-width="1" stroke="rgb(125,16,177)">
	</line>
	<line x1="53" y1="46" x2="53" y2="53" stroke-width="1" stroke="rgb(125,16,177)">
	</line>
	<line x1="53" y1="53" x2="59" y2="53" stroke-width="1" stroke="rgb(125,16,177)">
	</line>
	<line x1="59" y1="53" x2="59" y2="59" stroke-width="1" stroke="rgb(125,16,177)">
	</line>
	<line x1="59" y1="59" x2="53" y2="59" stroke-width="1" stroke="rgb(125,16,177)">
	</line>
	<line x1="53" y1="59" x2="53" y2="65" stroke-width="1" stroke="rgb(148,19,172)">
	</line>
	<line x1="53" y1="65" x2="53" y2="71" stroke-width="1" stroke="rgb(148,19,172)">
	</line>
	<line x1="53" y1="71" x2="59" y2="71" stroke-width="1" stroke="rgb(148,19,172)">
	</line>
	<line x1="59" y1="71" x2="59" y2="65" stroke-width="1" stroke="rgb(148,19,172)">
	</line>
	<line x1="59" y1="65" x2="65" y2="65" stroke-width="1" stroke="rgb(125,16,177)">
	</line>
	<line x1="65" y1="65" x2="65" y2="71" stroke-width="1" stroke="rgb(125,16,177)">
	</line>
	<line x1="65" y1="71" x2="71" y2="71" stroke-width="1" stroke="rgb(125,16,177)">
	</line>
	<line x1="71" y1="71" x2="71" y2="65" stroke-width="1" stroke="rgb(125,16,177)">
	</line>
	<line x1="71" y1="65" x2="71" y2="59" stroke-width="1" stroke="rgb(102,12,182)">
	</line>
	<line x1="71" y1="59" x2="65" y2="59" stroke-width="1" stroke="rgb(102,12,182)">
	</line>
	<line x1="65" y1="59" x2="65" y2="53" stroke-width="1" stroke="rgb(102,12,182)">
	</line>
	<line x1="65" y1="53" x2="71" y2="53" stroke-width="1" stroke="rgb(102,12,182)">
	</line>
	<line x1="71" y1="53" x2="78" y2="53" stroke-width="1" stroke="rgb(102,12,182)">
	</line>
	<line x1="78" y1="53" x2="78" y2="59" stroke-width="1" stroke="rgb(102,12,182)">
	</line>
	<line x1="78" y1="59" x2="84" y2="59" stroke-width="1" stroke="rgb(79,9,186)">
	</line>
	<line x1="84" y1="59" x2="84" y2="53" stroke-width="1" stroke="rgb(79,9,186)">
	</line>
	<line x1="84" y1="53" x2="90" y2="53" stroke-width="1" stroke="rgb(79,9,186)">
	</line>
	<line x1="90" y1="53" x2="96" y2="53" stroke-width="1" stroke="rgb(79,9,186)">
	</line>
	<line x1="96" y1="53" x2="96" y2="59" stroke-width="1" stroke="rgb(79,9,186)">
	</line>
	<line x1="96" y1="59" x2="90" y2="59" stroke-width="1" stroke="rgb(79,9,186)">
	</line>
	<line x1="90" y1="59" x2="90" y2="65" stroke-width="1" stroke="rgb(102,13,181)">
	</line>
	<line x1="90" y1="65" x2="96" y2="65" stroke-width="1" stroke="rgb(102,13,181)">
	</line>
	<line x1="96" y1="65" x2="96" y2="71" stroke-width="1" stroke="rgb(102,13,181)">
	</line>
	<line x1="96" y1="71" x2="90" y2="71" stroke-width="1" stroke="rgb(102,13,181)">
	</line>
	<line x1="90" y1="71" x2="84" y2="71" stroke-width="1" stroke="rgb(102,13,181)">
	</line>
	<line x1="84" y1="71" x2="84" y2="65" stroke-width="1" stroke="rgb(102,13,181)">
	</line>
	<line x1="84" y1="65" x2="78" y2="65" stroke-width="1" stroke="rgb(125,16,177)">
	</line>
	<line x1="78" y1="65" x2="78" y2="71" stroke-width="1" stroke="rgb(125,16,177)">
	</line>
	<line x1="78" y1="71" x2="78" y2="78" stroke-width="1" stroke="rgb(125,16,177)">
	</line>
	<line x1="78" y1="78" x2="78" y2="84" stroke-width="1" stroke="rgb(147,19,173)">
	</line>
	<line x1="78" y1="84" x2="84" y2="84" stroke-width="1" stroke="rgb(124,16,177)">
	</line>
	<line x1="84" y1="84" x2="84" y2="78" stroke-width="1" stroke="rgb(102,13,181)">
	</line>
	<line x1="84" y1="78" x2="90" y2="78" stroke-width="1" stroke="rgb(102,13,181)">
	</line>
	<line x1="90" y1="78" x2="96" y2="78" stroke-width="1" stroke="rgb(102,13,181)">
	</line>
	<line x1="96" y1="78" x2="96" y2="84" stroke-width="1" stroke="rgb(124,16,177)">
	</line>
	<line x1="96" y1="84" x2="90" y2="84" stroke-width="1" stroke="rgb(124,16,177)">
	</line>
	<line x1="90" y1="84" x2="90" y2="90" stroke-width="1" stroke="rgb(124,16,177)">
	</line>
	<line x1="90" y1="90" x2="96" y2="90" stroke-width="1" stroke="rgb(124,16,177)">
	</line>
	<line x1="96" y1="90" x2="96" y2="96" stroke-width="1" stroke="rgb(124,16,177)">
	</line>
	<line x1="96" y1="96" x2="90" y2="96" stroke-width="1" stroke="rgb(124,16,177)">
	</line>
	<line x1="90" y1="96" x2="84" y2="96" stroke-width="1" stroke="rgb(124,16,177)">
	</line>
	<line x1="84" y1="96" x2="84" y2="90" stroke-width="1" stroke="rgb(124,16,177)">
	</line>
	<line x1="84" y1="90" x2="78" y2="90" stroke-width="1" stroke="rgb(147,19,173)">
	</line>
	<line x1="78" y1="90" x2="78" y2="96" stroke-width="1" stroke="rgb(147,19,173)">
	</line>
	<line x1="78" y1="96" x2="71" y2="96" stroke-width="1" stroke="rgb(147,19,173)">
	</line>
	<line x1="71" y1="96" x2="65" y2="96" stroke-width="1" stroke="rgb(147,19,173)">
	</line>
	<line x1="65" y1="96" x2="65" y2="90" stroke-width="1" stroke="rgb(147,19,173)">
	</line>
	<line x1="65" y1="90" x2="71" y2="90" stroke-width="1" stroke="rgb(147,19,173)">
	</line>
	<line x1="71" y1="90" x2="71" y2="84" stroke-width="1" stroke="rgb(147,19,173)">
	</line>
	<line x1="71" y1="84" x2="71" y2="78" stroke-width="1" stroke="rgb(125,16,177)">
	</line>
	<line x1="71" y1="78" x2="65" y2="78" stroke-width="1" stroke="rgb(125,16,177)">
	</line>
	<line x1="65" y1="78" x2="65" y2="84" stroke-width="1" stroke="rgb(147,19,173)">
	</line>
	<line x1="65" y1="84" x2="59" y2="84" stroke-width="1" stroke="rgb(170,22,168)">
	</line>
	<line x1="59" y1="84" x2="59" y2="78" stroke-width="1" stroke="rgb(148,19,172)">
	</line>
	<line x1="59" y1="78" x2="53" y2="78" stroke-width="1" stroke="rgb(148,19,172)">
	</line>
	<line x1="53" y1="78" x2="53" y2="84" stroke-width="1" stroke="rgb(170,22,168)">
	</line>
	<line x1="53" y1="84" x2="53" y2="90" stroke-width="1" stroke="rgb(170,22,168)">
	</line>
	<line x1="53" y1="90" x2="59" y2="90" stroke-width="1" stroke="rgb(170,22,168)">
	</line>
	<line x1="59" y1="90" x2="59" y2="96" stroke-width="1" stroke="rgb(170,22,168)">
	</line>
	<line x1="59" y1="96" x2="53" y2="96" stroke-width="1" stroke="rgb(170,22,168)">
	</line>
	<line x1="53" y1="96" x2="46" y2="96" stroke-width="1" stroke="rgb(170,22,168)">
	</line>
	<line x1="46" y1="96" x2="46" y2="90" stroke-width="1" stroke="rgb(170,22,168)">
	</line>
	<line x1="46" y1="90" x2="40" y2="90" stroke-width="1" stroke="rgb(170,22,168)">
	</line>
	<line x1="40" y1="90" x2="40" y2="96" stroke-width="1" stroke="rgb(170,22,168)">
	</line>
	<line x1="40" y1="96" x2="34" y2="96" stroke-width="1" stroke="rgb(192,25,163)">
	</line>
	<line x1="34" y1="96" x2="28" y2="96" stroke-width="1" stroke="rgb(192,25,163)">
	</line>
	<line x1="28" y1="96" x2="28" y2="90" stroke-width="1" stroke="rgb(192,25,163)">
	</line>
	<line x1="28" y1="90" x2="34" y2="90" stroke-width="1" stroke="rgb(192,25,163)">
	</line>
	<line x1="34" y1="90" x2="34" y2="84" stroke-width="1" stroke="rgb(192,25,163)">
	</line>
	<line x1="34" y1="84" x2="28" y2="84" stroke-width="1" stroke="rgb(192,25,163)">
	</line>
	<line x1="28" y1="84" x2="28" y2="78" stroke-width="1" stroke="rgb(171,22,167)">
	</line>
	<line x1="28" y1="78" x2="34" y2="78" stroke-width="1" stroke="rgb(171,22,167)">
	</line>
	<line x1="34" y1="78" x2="40" y2="78" stroke-width="1" stroke="rgb(148,19,172)">
	</line>
	<line x1="40" y1="78" x2="40" y2="84" stroke-width="1" stroke="rgb(170,22,168)">
	</line>
	<line x1="40" y1="84" x2="46" y2="84" stroke-width="1" stroke="rgb(170,22,168)">
	</line>
	<line x1="46" y1="84" x2="46" y2="78" stroke-width="1" stroke="rgb(148,19,172)">
	</line>
	<line x1="46" y1="78" x2="46" y2="71" stroke-width="1" stroke="rgb(148,19,172)">
	</line>
	<line x1="46" y1="71" x2="40" y2="71" stroke-width="1" stroke="rgb(148,19,172)">
	</line>
	<line x1="40" y1="71" x2="40" y2="65" stroke-width="1" stroke="rgb(148,19,172)">
	</line>
	<line x1="40" y1="65" x2="46" y2="65" stroke-width="1" stroke="rgb(148,19,172)">
	</line>
	<line x1="46" y1="65" x2="46" y2="59" stroke-width="1" stroke="rgb(125,16,177)">
	</line>
	<line x1="46" y1="59" x2="46" y2="53" stroke-width="1" stroke="rgb(125,16,177)">
	</line>
	<line x1="46" y1="53" x2="40" y2="53" stroke-width="1" stroke="rgb(125,16,177)">
	</line>
	<line x1="40" y1="53" x2="40" y2="59" stroke-width="1" stroke="rgb(125,16,177)">
	</line>
	<line x1="40" y1="59" x2="34" y2="59" stroke-width="1" stroke="rgb(148,19,172)">
	</line>
	<line x1="34" y1="59" x2="34" y2="53" stroke-width="1" stroke="rgb(148,19,172)">
	</line>
	<line x1="34" y1="53" x2="28" y2="53" stroke-width="1" stroke="rgb(148,19,172)">
	</line>
	<line x1="28" y1="53" x2="28" y2="59" stroke-width="1" stroke="rgb(148,19,172)">
	</line>
	<line x1="28" y1="59" x2="28" y2="65" stroke-width="1" stroke="rgb(171,22,167)">
	</line>
	<line x1="28" y1="65" x2="34" y2="65" stroke-width="1" stroke="rgb(171,22,167)">
	</line>
	<line x1="34" y1="65" x2="34" y2="71" stroke-width="1" stroke="rgb(171,22,167)">
	</line>
	<line x1="34" y1="71" x2="28" y2="71" stroke-width="1" stroke="rgb(171,22,167)">
	</line>
	<line x1="28" y1="71" x2="21" y2="71" stroke-width="1" stroke="rgb(171,22,167)">
	</line>
	<line x1="21" y1="71" x2="15" y2="71" stroke-width="1" stroke="rgb(193,25,163)">
	</line>
	<line x1="15" y1="71" x2="15" y2="65" stroke-width="1" stroke="rgb(193,25,163)">
	</line>
	<line x1="15" y1="65" x2="21" y2="65" stroke-width="1" stroke="rgb(171,22,167)">
	</line>
	<line x1="21" y1="65" x2="21" y2="59" stroke-width="1" stroke="rgb(148,19,172)">
	</line>
	<line x1="21" y1="59" x2="21" y2="53" stroke-width="1" stroke="rgb(148,19,172)">
	</line>
	<line x1="21" y1="53" x2="15" y2="53" stroke-width="1" stroke="rgb(170,22,167)">
	</line>
	<line x1="15" y1="53" x2="15" y2="59" stroke-width="1" stroke="rgb(170,22,167)">
	</line>
	<line x1="15" y1="59" x2="9" y2="59" stroke-width="1" stroke="rgb(170,22,167)">
	</line>
	<line x1="9" y1="59" x2="9" y2="53" stroke-width="1" stroke="rgb(170,22,167)">
	</line>
	<line x1="9" y1="53" x2="3" y2="53" stroke-width="1" stroke="rgb(170,22,167)">
	</line>
	<line x1="3" y1="53" x2="3" y2="59" stroke-width="1" stroke="rgb(170,22,167)">
	</line>
	<line x1="3" y1="59" x2="3" y2="65" stroke-width="1" stroke="rgb(193,25,163)">
	</line>
	<line x1="3" y1="65" x2="9" y2="65" stroke-width="1" stroke="rgb(193,25,163)">
	</line>
	<line x1="9" y1="65" x2="9" y2="71" stroke-width="1" stroke="rgb(193,25,163)">
	</line>
	<line x1="9" y1="71" x2="3" y2="71" stroke-width="1" stroke="rgb(193,25,163)">
	</line>
	<line x1="3" y1="71" x2="3" y2="78" stroke-width="1" stroke="rgb(193,25,163)">
	</line>
	<line x1="3" y1="78" x2="3" y2="84" stroke-width="1" stroke="rgb(215,28,158)">
	</line>
	<line x1="3" y1="84" x2="9" y2="84" stroke-width="1" stroke="rgb(215,28,158)">
	</line>
	<line x1="9" y1="84" x2="9" y2="78" stroke-width="1" stroke="rgb(193,25,163)">
	</line>
	<line x1="9" y1="78" x2="15" y2="78" stroke-width="1" stroke="rgb(193,25,163)">
	</line>
	<line x1="15" y1="78" x2="21" y2="78" stroke-width="1" stroke="rgb(171,22,167)">
	</line>
	<line x1="21" y1="78" x2="21" y2="84" stroke-width="1" stroke="rgb(192,25,163)">
	</line>
	<line x1="21" y1="84" x2="15" y2="84" stroke-width="1" stroke="rgb(215,28,158)">
	</line>
	<line x1="15" y1="84" x2="15" y2="90" stroke-width="1" stroke="rgb(215,28,158)">
	</line>
	<line x1="15" y1="90" x2="21" y2="90" stroke-width="1" stroke="rgb(192,25,163)">
	</line>
	<line x1="21" y1="90" x2="21" y2="96" stroke-width="1" stroke="rgb(192,25,163)">
	</line>
	<line x1="21" y1="96" x2="15" y2="96" stroke-width="1" stroke="rgb(215,28,158)">
	</line>
	<line x1="15" y1="96" x2="9" y2="96" stroke-width="1" stroke="rgb(215,28,158)">
	</line>
	<line x1="9" y1="96" x2="9" y2="90" stroke-width="1" stroke="rgb(215,28,158)">
	</line>
	<line x1="9" y1="90" x2="3" y2="90" stroke-width="1" stroke="rgb(215,28,158)">
	</line>
	<line x1="3" y1="90" x2="3" y2="96" stroke-width="1" stroke="rgb(215,28,158)">
	</line>
</svg>
