<svg version="1.1" xmlns="http://www.w3.org/2000/svg" xmlns:xlink="http://www.w3.org/1999/xlink" viewBox="-50 -40 300 280" preserveAspectRatio="xMidYMid slice" width="200" height="200">
	<defs>
		<path id="0000" d="M 21.40625 21.40625 L 21.40625 42.71875 C 21.40625 44.710493 22.578291 46.102785 24.03125 45.71875 C 25.240444 45.399147 26.916359 42.211028 31.25 42.46875 C 35.58364 42.726471 37.8125 46.812924 37.8125 50 C 37.8125 53.187076 35.58364 57.273529 31.25 57.53125 C 26.916359 57.788972 25.240444 54.600853 24.03125 54.28125 C 22.578291 53.897215 21.40625 55.258257 21.40625 57.25 L 21.40625 78.59375 L 42.78125 78.59375 C 44.77299 78.59375 46.10279 77.421709 45.71875 75.96875 C 45.39915 74.759556 42.21103 73.083641 42.46875 68.75 C 42.72647 64.41636 46.81293 62.1875 50 62.1875 C 53.18708 62.1875 57.30478 64.41636 57.5625 68.75 C 57.82022 73.083641 54.6321 74.759556 54.3125 75.96875 C 53.92846 77.421709 55.2895 78.59375 57.28125 78.59375 L 78.59375 78.59375 L 78.59375 57.25 C 78.59375 55.25825 77.452959 53.89721 76 54.28125 C 74.790806 54.60085 73.114891 57.78897 68.78125 57.53125 C 64.44761 57.27353 62.21875 53.18708 62.21875 50 C 62.21875 46.81293 64.44761 42.726471 68.78125 42.46875 C 73.114891 42.211028 74.790806 45.39915 76 45.71875 C 77.452959 46.10279 78.59375 44.710489 78.59375 42.71875 L 78.59375 21.40625 L 57.28125 21.40625 C 55.289507 21.40625 53.897215 22.578291 54.28125 24.03125 C 54.600853 25.240444 57.788972 26.916359 57.53125 31.25 C 57.273529 35.58364 53.187076 37.8125 50 37.8125 C 46.812924 37.8125 42.726471 35.58364 42.46875 31.25 C 42.211028 26.916359 45.399147 25.240444 45.71875 24.03125 C 46.102785 22.578291 44.741743 21.40625 42.75 21.40625 L 21.40625 21.40625 z " transform="scale(0.18)">
		</path>
		<path id="1000" d="M 50 5 C 46.812924 5 42.726471 7.2288604 42.46875 11.5625 C 42.211028 15.896141 45.399147 17.572056 45.71875 18.78125 C 46.102785 20.234209 44.741743 21.40625 42.75 21.40625 L 21.40625 21.40625 L 21.40625 42.71875 C 21.40625 44.710493 22.578291 46.102785 24.03125 45.71875 C 25.240444 45.399147 26.916359 42.211028 31.25 42.46875 C 35.58364 42.726471 37.8125 46.812924 37.8125 50 C 37.8125 53.187076 35.58364 57.273529 31.25 57.53125 C 26.916359 57.788972 25.240444 54.600853 24.03125 54.28125 C 22.578291 53.897215 21.40625 55.258257 21.40625 57.25 L 21.40625 78.59375 L 42.78125 78.59375 C 44.77299 78.59375 46.10279 77.421709 45.71875 75.96875 C 45.39915 74.759556 42.21103 73.083641 42.46875 68.75 C 42.72647 64.41636 46.81293 62.1875 50 62.1875 C 53.18708 62.1875 57.30478 64.41636 57.5625 68.75 C 57.82022 73.083641 54.6321 74.759556 54.3125 75.96875 C 53.92846 77.421709 55.2895 78.59375 57.28125 78.59375 L 78.59375 78.59375 L 78.59375 57.25 C 78.59375 55.25825 77.452959 53.89721 76 54.28125 C 74.790806 54.60085 73.114891 57.78897 68.78125 57.53125 C 64.44761 57.27353 62.21875 53.18708 62.21875 50 C 62.21875 46.81293 64.44761 42.726471 68.78125 42.46875 C 73.114891 42.211028 74.790806 45.39915 76 45.71875 C 77.452959 46.10279 78.59375 44.710489 78.59375 42.71875 L 78.59375 21.40625 L 57.28125 21.40625 C 55.289507 21.40625 53.897215 20.234209 54.28125 18.78125 C 54.600853 17.572056 57.788972 15.896141 57.53125 11.5625 C 57.273529 7.2288604 53.187076 5 50 5 z " transform="scale(0.18)">
		</path>
		<path id="1100" d="m 50,5 c -3.187076,0 -7.273529,2.2288604 -7.53125,6.5625 -0.257722,4.333641 2.930397,6.009556 3.25,7.21875 0.384035,1.452959 -0.977007,2.625 -2.96875,2.625 l -21.34375,0 0,21.3125 c 0,1.991743 1.172041,3.384035 2.625,3 1.209194,-0.319603 2.885109,-3.507722 7.21875,-3.25 4.33364,0.257721 6.5625,4.344174 6.5625,7.53125 0,3.187076 -2.22886,7.273529 -6.5625,7.53125 -4.333641,0.257722 -6.009556,-2.930397 -7.21875,-3.25 -1.452959,-0.384035 -2.625,0.977007 -2.625,2.96875 l 0,21.34375 21.375,0 c 1.99174,0 3.32154,-1.172041 2.9375,-2.625 -0.3196,-1.209194 -3.50772,-2.885109 -3.25,-7.21875 0.25772,-4.33364 4.34418,-6.5625 7.53125,-6.5625 3.18708,0 7.30478,2.22886 7.5625,6.5625 0.25772,4.333641 -2.9304,6.009556 -3.25,7.21875 -0.38404,1.452959 0.977,2.625 2.96875,2.625 l 21.3125,0 0,-21.3125 c 0,-1.991743 1.172041,-3.384035 2.625,-3 1.209194,0.319603 2.885109,3.507722 7.21875,3.25 C 92.77114,57.273529 95,53.187076 95,50 c 0,-3.187076 -2.22886,-7.273529 -6.5625,-7.53125 -4.333641,-0.257722 -6.009556,2.930397 -7.21875,3.25 -1.452959,0.384035 -2.625,-0.977007 -2.625,-2.96875 l 0,-21.34375 -21.3125,0 c -1.991743,0 -3.384035,-1.172041 -3,-2.625 0.319603,-1.209194 3.507722,-2.885109 3.25,-7.21875 C 57.273529,7.2288604 53.187076,5 50,5 Z" transform="scale(0.18)">
		</path>
		<path id="1110" d="M 50 5 C 46.812924 5 42.726471 7.2288604 42.46875 11.5625 C 42.211028 15.896141 45.399147 17.572056 45.71875 18.78125 C 46.102785 20.234209 44.741743 21.40625 42.75 21.40625 L 21.40625 21.40625 L 21.40625 42.71875 C 21.40625 44.710493 22.578291 46.102785 24.03125 45.71875 C 25.240444 45.399147 26.916359 42.211028 31.25 42.46875 C 35.58364 42.726471 37.8125 46.812924 37.8125 50 C 37.8125 53.187076 35.58364 57.273529 31.25 57.53125 C 26.916359 57.788972 25.240444 54.600853 24.03125 54.28125 C 22.578291 53.897215 21.40625 55.258257 21.40625 57.25 L 21.40625 78.59375 L 42.71875 78.59375 C 44.710493 78.59375 46.102784 79.76579 45.71875 81.21875 C 45.399147 82.427944 42.211027 84.103859 42.46875 88.4375 C 42.726471 92.77114 46.812924 95 50 95 C 53.187075 95 57.273528 92.77114 57.53125 88.4375 C 57.788972 84.103859 54.600853 82.427944 54.28125 81.21875 C 53.897215 79.76579 55.258257 78.59375 57.25 78.59375 L 78.59375 78.59375 L 78.59375 57.28125 C 78.59375 55.289507 79.76579 53.897215 81.21875 54.28125 C 82.427943 54.600853 84.103859 57.788972 88.4375 57.53125 C 92.77114 57.273529 95 53.187076 95 50 C 95 46.812924 92.77114 42.726471 88.4375 42.46875 C 84.103859 42.211028 82.427944 45.399147 81.21875 45.71875 C 79.765791 46.102785 78.59375 44.741743 78.59375 42.75 L 78.59375 21.40625 L 57.28125 21.40625 C 55.289507 21.40625 53.897215 20.234209 54.28125 18.78125 C 54.600853 17.572056 57.788972 15.896141 57.53125 11.5625 C 57.273529 7.2288604 53.187076 5 50 5 z " transform="scale(0.18)">
		</path>
		<path id="1111" d="M 50 5 C 46.812924 5 42.726471 7.22886 42.46875 11.5625 C 42.211028 15.896141 45.399147 17.572056 45.71875 18.78125 C 46.102785 20.234209 44.741743 21.40625 42.75 21.40625 L 21.40625 21.40625 L 21.40625 42.71875 C 21.40625 44.710493 20.234209 46.102785 18.78125 45.71875 C 17.572057 45.399147 15.896142 42.211028 11.5625 42.46875 C 7.2288635 42.726471 5 46.812924 5 50 C 5 53.187076 7.2288625 57.273529 11.5625 57.53125 C 15.896141 57.788972 17.572057 54.600853 18.78125 54.28125 C 20.234209 53.897215 21.40625 55.258257 21.40625 57.25 L 21.40625 78.59375 L 42.71875 78.59375 C 44.710493 78.59375 46.102784 79.765789 45.71875 81.21875 C 45.399147 82.427943 42.211027 84.103858 42.46875 88.4375 C 42.726471 92.77114 46.812924 95 50 95 C 53.187075 95 57.273528 92.77114 57.53125 88.4375 C 57.788972 84.103858 54.600853 82.427943 54.28125 81.21875 C 53.897215 79.765789 55.258257 78.59375 57.25 78.59375 L 78.59375 78.59375 L 78.59375 57.28125 C 78.59375 55.289507 79.76579 53.897216 81.21875 54.28125 C 82.427944 54.600853 84.103859 57.788973 88.4375 57.53125 C 92.77114 57.273529 95 53.187076 95 50 C 95 46.812925 92.77114 42.726472 88.4375 42.46875 C 84.103859 42.211028 82.427944 45.399147 81.21875 45.71875 C 79.76579 46.102785 78.59375 44.741743 78.59375 42.75 L 78.59375 21.40625 L 57.28125 21.40625 C 55.289507 21.40625 53.897215 20.23421 54.28125 18.78125 C 54.600853 17.572057 57.788972 15.896141 57.53125 11.5625 C 57.273529 7.22886 53.187076 5 50 5 z " transform="scale(0.18)">
		</path>
		<path id="1010" d="m50,5c-3.18708,0 -7.27353,2.22886 -7.53125,6.5625c-0.25772,4.33364 2.9304,6.00956 3.25,7.21875c0.38403,1.45296 -0.97701,2.625 -2.96875,2.625l14.53125,0c-1.99174,0 -3.38403,-1.17204 -3,-2.625c0.3196,-1.20919 3.50772,-2.88511 3.25,-7.21875c-0.25772,-4.33364 -4.34417,-6.5625 -7.53125,-6.5625 M50,95c3.18708,0 7.27353,-2.22886 7.53125,-6.5625c0.25772,-4.33364 -2.9304,-6.00956 -3.25,-7.21875c-0.38403,-1.45296 0.97701,-2.625 2.96875,-2.625l21.34375,0l0,-21.3125c0,-1.99174 -1.17204,-3.38403 -2.625,-3c-1.20919,0.3196 -2.88511,3.50772 -7.21875,3.25c-4.33364,-0.25772 -6.5625,-4.34417 -6.5625,-7.53125c0,-3.18708 2.22886,-7.27353 6.5625,-7.53125c4.33364,-0.25772 6.00956,2.9304 7.21875,3.25c1.45296,0.38403 2.625,-0.97701 2.625,-2.96875l0,-21.34375l-21.375,0l-35.8125,0l0,21.34375c0,1.99175 1.14079,3.35279 2.59375,2.96875c1.20919,-0.3196 2.88511,-3.50772 7.21875,-3.25c4.33364,0.25772 6.5625,4.34417 6.5625,7.53125c0,3.18707 -2.22886,7.27353 -6.5625,7.53125c-4.33364,0.25772 -6.00956,-2.9304 -7.21875,-3.25c-1.45296,-0.38404 -2.59375,1.00826 -2.59375,3l0,21.3125l21.3125,0c1.99174,0 3.38403,1.17204 3,2.625c-0.3196,1.20919 -3.50772,2.88511 -3.25,7.21875c0.25772,4.33364 4.34417,6.5625 7.53125,6.5625z" transform="scale(0.18)">
		</path>
		<path id="e000" d="m21.40625 21.40625v21.3125c0 1.991743 1.172041 3.384035 2.625 3 1.209194-.319603 2.885109-3.507722 7.21875-3.25 4.33364.257721 6.5625 4.344174 6.5625 7.53125 0 3.187076-2.22886 7.273529-6.5625 7.53125-4.333641.257722-6.009556-2.930397-7.21875-3.25-1.452959-.384035-2.625.977007-2.625 2.96875v21.34375h21.375c1.99174 0 3.32154-1.172041 2.9375-2.625-.3196-1.209194-3.50772-2.885109-3.25-7.21875.25772-4.33364 4.34418-6.5625 7.53125-6.5625 3.18708 0 7.30478 2.22886 7.5625 6.5625.25772 4.333641-2.9304 6.009556-3.25 7.21875-.38404 1.452959.977 2.625 2.96875 2.625h21.3125v-21.34375c0-1.99175-1.140791-3.35279-2.59375-2.96875-1.209194.3196-2.885109 3.50772-7.21875 3.25-4.33364-.25772-6.5625-4.34417-6.5625-7.53125 0-3.18707 2.22886-7.273529 6.5625-7.53125 4.333641-.257722 6.009556 2.9304 7.21875 3.25 1.452959.38404 2.59375-1.008261 2.59375-3v-21.3125z" transform="scale(0.18)">
		</path>
		<path id="e00e" d="m21.40625 21.40625v57.1875h21.3125c1.991743 0 3.384035-1.172041 3-2.625-.319603-1.209194-3.507722-2.885109-3.25-7.21875.257721-4.33364 4.344174-6.5625 7.53125-6.5625 3.187076 0 7.273529 2.22886 7.53125 6.5625.257722 4.333641-2.930397 6.009556-3.25 7.21875-.384035 1.452959.977007 2.625 2.96875 2.625h21.34375v-21.375c0-1.99174-1.172041-3.32154-2.625-2.9375-1.209194.3196-2.885109 3.50772-7.21875 3.25-4.33364-.25772-6.5625-4.34418-6.5625-7.53125 0-3.18708 2.22886-7.30478 6.5625-7.5625 4.333641-.25772 6.009556 2.9304 7.21875 3.25 1.452959.38404 2.625-.977 2.625-2.96875v-21.3125z" transform="scale(0.18)">
		</path>
		<path id="e001" d="m21.40625 21.40625v21.3125c0 1.99174-1.172039 3.38403-2.625 3-1.209199-.31961-2.885109-3.50773-7.21875-3.25-4.3336398.25772-6.5625 4.34417-6.5625 7.53125 0 3.18707 2.2288602 7.273531 6.5625 7.53125 4.333641.25772 6.009551-2.9304 7.21875-3.25 1.452961-.38404 2.625.977 2.625 2.96875v21.34375h21.34375c1.991743 0 3.352785-1.172041 2.96875-2.625-.319603-1.209194-3.507722-2.885109-3.25-7.21875.257721-4.33364 4.344174-6.5625 7.53125-6.5625 3.187076 0 7.273529 2.22886 7.53125 6.5625.257722 4.333641-2.930397 6.009556-3.25 7.21875-.384035 1.452959 1.008257 2.625 3 2.625h21.3125v-21.34375c0-1.991743-1.172041-3.352785-2.625-2.96875-1.209194.319603-2.885109 3.507722-7.21875 3.25-4.33364-.257721-6.5625-4.344174-6.5625-7.53125 0-3.187076 2.22886-7.273529 6.5625-7.53125 4.333641-.257722 6.009556 2.930397 7.21875 3.25 1.452959.384035 2.625-1.008257 2.625-3v-21.3125z" transform="scale(0.18)">
		</path>
		<path id="e01e" style="color:#000000;" d="m 21.40625,21.40625 0,57.1875 21.34375,0 c 1.991743,0 3.352785,1.172039 2.96875,2.625 -0.319603,1.209193 -3.507722,2.885108 -3.25,7.21875 C 42.726472,92.77114 46.812925,95 50,95 c 3.187076,0 7.273529,-2.22886 7.53125,-6.5625 0.257723,-4.333642 -2.930397,-6.009557 -3.25,-7.21875 -0.384034,-1.452961 1.008257,-2.625 3,-2.625 l 21.3125,0 0,-21.3125 c 0,-1.991743 -1.17204,-3.384035 -2.625,-3 -1.20919,0.319603 -2.88511,3.507722 -7.21875,3.25 C 64.41636,57.273529 62.1875,53.187076 62.1875,50 c 0,-3.187076 2.22886,-7.273529 6.5625,-7.53125 4.33364,-0.257722 6.00956,2.930397 7.21875,3.25 1.45296,0.384035 2.625,-0.977007 2.625,-2.96875 l 0,-21.34375 z" transform="scale(0.18)">
		</path>
		<path id="e010" d="m21.40625 21.40625v21.3125c0 1.991743 1.172041 3.384035 2.625 3 1.209194-.319603 2.885109-3.507722 7.21875-3.25 4.33364.257721 6.5625 4.344174 6.5625 7.53125 0 3.187076-2.22886 7.273529-6.5625 7.53125-4.333641.257722-6.009556-2.930397-7.21875-3.25-1.452959-.384035-2.625.977007-2.625 2.96875v21.34375h21.3125c1.99174 0 3.38403 1.172039 3 2.625-.31961 1.209199-3.50773 2.885109-3.25 7.21875.25772 4.33364 4.34417 6.5625 7.53125 6.5625 3.18707 0 7.273531-2.22886 7.53125-6.5625.25772-4.333641-2.9304-6.009551-3.25-7.21875-.38404-1.452961.977-2.625 2.96875-2.625h21.34375v-21.34375c0-1.991743-1.172041-3.352785-2.625-2.96875-1.209194.319603-2.885109 3.507722-7.21875 3.25-4.33364-.257721-6.5625-4.344174-6.5625-7.53125 0-3.187076 2.22886-7.273529 6.5625-7.53125 4.333641-.257722 6.009556 2.930397 7.21875 3.25 1.452959.384035 2.625-1.008257 2.625-3v-21.3125z" transform="scale(0.18)">
		</path>
		<path id="e10e" d="m21.40625 21.40625h57.187495v21.343754c0 1.99175 1.17204 3.35279 2.625 2.96875 1.2092-.3196 2.88511-3.50772 7.21875-3.25 4.33364.25772 6.5625 4.34418 6.5625 7.53125 0 3.18708-2.22886 7.27353-6.5625 7.53125-4.33364.25773-6.00955-2.93039-7.21875-3.25-1.45296-.38403-2.625 1.00826-2.625 3v21.3125h-21.3125c-1.99174 0-3.38403-1.17204-3-2.625.31961-1.20919 3.50773-2.88511 3.25-7.21875-.25772-4.33364-4.34417-6.5625-7.53125-6.5625-3.18707 0-7.27353 2.22886-7.53125 6.5625-.25772 4.33364 2.9304 6.00956 3.25 7.21875.38404 1.45296-.977 2.625-2.96875 2.625h-21.343745z" transform="scale(0.18)">
		</path>
		<path id="e011" d="m 21.40625 21.40625 l 0 21.34375 c 0 1.99175 -1.17204 3.35279 -2.625 2.96875 c -1.2092 -.3196 -2.88511 -3.50772 -7.21875 -3.25 C 7.22886 42.726469 5 46.81293 5 50 c 0 3.18708 2.22886 7.27353 6.5625 7.53125 c 4.33364 .25773 6.00955 -2.93039 7.21875 -3.25 c 1.45296 -.38403 2.625 1.00826 2.625 3 l 0 21.3125 l 21.34375 0 c 1.99175 0 3.35279 1.17204 2.96875 2.625 c -.3196 1.2092 -3.50772 2.88511 -3.25 7.21875 c .25772 4.333641 4.34418 6.562501 7.53125 6.562501 c 3.18708 0 7.27353 -2.22886 7.53125 -6.562501 c .25773 -4.33364 -2.93039 -6.00955 -3.25 -7.21875 c -.38403 -1.45296 1.00826 -2.625 3 -2.625 l 21.3125 0 l 0 -21.34375 c 0 -1.991743 -1.17204 -3.352785 -2.625 -2.96875 c -1.20919 .319603 -2.88511 3.507722 -7.21875 3.25 C 64.41636 57.273529 62.1875 53.187076 62.1875 50 c 0 -3.187076 2.22886 -7.273529 6.5625 -7.53125 c 4.33364 -.257722 6.00956 2.930397 7.21875 3.25 c 1.45296 .384035 2.625 -1.008257 2.625 -3 l 0 -21.3125 l -57.1875 0 z" transform="scale(0.18)">
		</path>
		<path id="e11e" d="m 78.5935,21.40625 0,21.3125 c 0,1.991743 1.172041,3.384035 2.625,3 1.209193,-0.319603 2.885108,-3.507722 7.21875,-3.25 4.333636,0.257721 6.5625,4.344174 6.5625,7.53125 0,3.187076 -2.228863,7.273529 -6.5625,7.53125 -4.333641,0.257722 -6.009557,-2.930397 -7.21875,-3.25 -1.452959,-0.384035 -2.625,0.977007 -2.625,2.96875 l 0,21.34375 -21.3125,0 c -1.991743,0 -3.384034,1.172039 -3,2.625 0.319603,1.209193 3.507723,2.885108 3.25,7.21875 C 57.273279,92.77114 53.186826,95 49.99975,95 c -3.187075,0 -7.273528,-2.22886 -7.53125,-6.5625 -0.257722,-4.333642 2.930397,-6.009557 3.25,-7.21875 0.384035,-1.452961 -0.977007,-2.625 -2.96875,-2.625 l -21.34375,0 0,-57.1875 z" transform="scale(0.18)">
		</path>
		<path id="e100" d="m21.40625 21.40625v21.3125c0 1.991743 1.172041 3.384035 2.625 3 1.209194-.319603 2.885109-3.507722 7.21875-3.25 4.33364.257721 6.5625 4.344174 6.5625 7.53125 0 3.187076-2.22886 7.273529-6.5625 7.53125-4.333641.257722-6.009556-2.930397-7.21875-3.25-1.452959-.384035-2.625.977007-2.625 2.96875v21.34375h21.375c1.99174 0 3.32154-1.172041 2.9375-2.625-.3196-1.209194-3.50772-2.885109-3.25-7.21875.25772-4.33364 4.34418-6.5625 7.53125-6.5625 3.18708 0 7.30478 2.22886 7.5625 6.5625.25772 4.333641-2.9304 6.009556-3.25 7.21875-.38404 1.452959.977 2.625 2.96875 2.625h21.3125v-21.3125c0-1.99174 1.172039-3.38403 2.625-3 1.209199.31961 2.885109 3.50773 7.21875 3.25 4.33364-.25772 6.5625-4.34417 6.5625-7.53125 0-3.18707-2.22886-7.273531-6.5625-7.53125-4.333641-.25772-6.009551 2.9304-7.21875 3.25-1.452961.38404-2.625-.977-2.625-2.96875v-21.34375z" transform="scale(0.18)">
		</path>
		<path id="e101" d="M 21.40625 21.40625 L 21.40625 42.75 C 21.40625 44.74175 20.23421 46.10279 18.78125 45.71875 C 17.57205 45.39915 15.89614 42.21103 11.5625 42.46875 C 7.22886 42.726469 5 46.81293 5 50 C 5 53.18708 7.22886 57.27353 11.5625 57.53125 C 15.89614 57.78898 17.57205 54.60086 18.78125 54.28125 C 20.23421 53.89722 21.40625 55.28951 21.40625 57.28125 L 21.40625 78.59375 L 42.71875 78.59375 C 44.710493 78.59375 46.102785 77.421709 45.71875 75.96875 C 45.399147 74.759556 42.211028 73.083641 42.46875 68.75 C 42.726471 64.41636 46.812924 62.1875 50 62.1875 C 53.187076 62.1875 57.273529 64.41636 57.53125 68.75 C 57.788972 73.083641 54.600853 74.759556 54.28125 75.96875 C 53.897215 77.421709 55.258257 78.59375 57.25 78.59375 L 78.59375 78.59375 L 78.59375 57.28125 C 78.59375 55.28951 79.765789 53.89722 81.21875 54.28125 C 82.427949 54.60086 84.103859 57.78898 88.4375 57.53125 C 92.77114 57.27353 95 53.18708 95 50 C 95 46.81293 92.77114 42.726469 88.4375 42.46875 C 84.103859 42.21103 82.427949 45.39915 81.21875 45.71875 C 79.765789 46.10279 78.59375 44.74175 78.59375 42.75 L 78.59375 21.40625 L 21.40625 21.40625 z" transform="scale(0.18)">
		</path>
		<path id="e110" d="m 78.59375 21.40625 l 0 21.34375 c 0 1.99175 1.17204 3.35279 2.625 2.96875 c 1.2092 -.3196 2.88511 -3.50772 7.21875 -3.25 C 92.77114 42.726469 95 46.81293 95 50 c 0 3.18708 -2.22886 7.27353 -6.5625 7.53125 c -4.33364 .25773 -6.00955 -2.93039 -7.21875 -3.25 c -1.45296 -.38403 -2.625 1.00826 -2.625 3 l 0 21.3125 l -21.34375 0 c -1.99175 0 -3.35279 1.17204 -2.96875 2.625 c .3196 1.2092 3.50772 2.88511 3.25 7.21875 c -.25772 4.333641 -4.34418 6.562501 -7.53125 6.562501 c -3.18708 0 -7.27353 -2.22886 -7.53125 -6.562501 c -.25773 -4.33364 2.93039 -6.00955 3.25 -7.21875 c .38403 -1.45296 -1.00826 -2.625 -3 -2.625 l -21.3125 0 l 0 -21.34375 c 0 -1.991743 1.17204 -3.352785 2.625 -2.96875 c 1.20919 .319603 2.88511 3.507722 7.21875 3.25 c 4.33364 -.257721 6.5625 -4.344174 6.5625 -7.53125 c 0 -3.187076 -2.22886 -7.273529 -6.5625 -7.53125 c -4.33364 -.257722 -6.00956 2.930397 -7.21875 3.25 c -1.45296 .384035 -2.625 -1.008257 -2.625 -3 l 0 -21.3125 l 57.1875 0 z" transform="scale(0.18)">
		</path>
		<path id="e111" d="m 21.40625,21.40625 0,21.3125 c 0,1.991743 -1.172041,3.384035 -2.625,3 -1.209193,-0.319603 -2.885108,-3.507722 -7.21875,-3.25 C 7.2288635,42.726471 5,46.812924 5,50 c 0,3.187076 2.2288625,7.273529 6.5625,7.53125 4.333641,0.257722 6.009557,-2.930397 7.21875,-3.25 1.452959,-0.384035 2.625,0.977007 2.625,2.96875 l 0,21.34375 21.3125,0 c 1.991743,0 3.384034,1.172039 3,2.625 -0.319603,1.209193 -3.507723,2.885108 -3.25,7.21875 C 42.726471,92.77114 46.812924,95 50,95 c 3.187075,0 7.273528,-2.22886 7.53125,-6.5625 0.257722,-4.333642 -2.930397,-6.009557 -3.25,-7.21875 -0.384035,-1.452961 0.977007,-2.625 2.96875,-2.625 l 21.34375,0 0,-21.3125 c 0,-1.991743 1.17204,-3.384034 2.625,-3 1.209194,0.319603 2.885109,3.507723 7.21875,3.25 C 92.77114,57.273529 95,53.187076 95,50 c 0,-3.187075 -2.22886,-7.273528 -6.5625,-7.53125 -4.333641,-0.257722 -6.009556,2.930397 -7.21875,3.25 -1.45296,0.384035 -2.625,-0.977007 -2.625,-2.96875 l 0,-21.34375 z" transform="scale(0.18)">
		</path>
	</defs>
	<rect width="100%" height="100%" fill="black">
	</rect>
	<use xlink:href="#e10e" fill="rgb(121,12,173)" transform="translate(0, 0) scale(3.75) ">
	</use>
	<use xlink:href="#e000" fill="rgb(80,3,178)" transform="translate(40, 0) scale(3.75) ">
	</use>
	<use xlink:href="#e01e" fill="rgb(40,-5,183)" transform="translate(80, 0) scale(3.75) rotate(90, 9, 9 )">
	</use>
	<use xlink:href="#e110" fill="rgb(161,19,167)" transform="translate(0, 40) scale(3.75) rotate(270, 9, 9 )">
	</use>
	<use xlink:href="#1110" fill="rgb(119,10,171)" transform="translate(40, 40) scale(3.75) ">
	</use>
	<use xlink:href="#e101" fill="rgb(84,7,182)" transform="translate(80, 40) scale(3.75) rotate(90, 9, 9 )">
	</use>
	<use xlink:href="#e10e" fill="rgb(186,12,147)" transform="translate(0, 80) scale(3.75) rotate(270, 9, 9 )">
	</use>
	<use xlink:href="#e101" fill="rgb(152,11,159)" transform="translate(40, 80) scale(3.75) rotate(180, 9, 9 )">
	</use>
	<use xlink:href="#e00e" fill="rgb(135,27,188)" transform="translate(80, 80) scale(3.75) rotate(180, 9, 9 )">
	</use>
</svg>
